<?xml version="1.0" encoding="UTF-8"?>
<svg id="_背景" data-name="背景" xmlns="http://www.w3.org/2000/svg" viewBox="0 0 418.98 129.19">
  <defs>
    <style>
      .cls-1 {
        fill: #fff;
      }

      .cls-1, .cls-2, .cls-3, .cls-4 {
        stroke-width: 0px;
      }

      .cls-2 {
        fill: #c1343b;
      }

      .cls-3 {
        fill: #1c1c1c;
      }

      .cls-4 {
        fill: #6c79a4;
      }
    </style>
  </defs>
  <g>
    <g>
      <path class="cls-3" d="m72.76,115.85c-2.58,0-4.98-1.26-6.55-3.47-1.79-2.46-5-6.03-10.41-9.89-3.73,4.31-9.35,6.57-15.51,5.97-10-.9-14.45-8.08-14.33-14.37.12-6.65,5.41-13.67,15.27-14.19h.12c.9-.03,1.78,0,2.62.09-.02-.43-.03-.86-.05-1.28-5.06-.36-9.23-2.32-11.83-5.67-.37-.48-.71-.98-1-1.49-2.39,6.59-4.14,13.95-5.61,20.14l-.52,2.16c-.06.23-.1.43-.15.66-1.73,7.8-5.68,11.75-11.73,11.75-3.2-.03-6-1.32-8.13-3.75C-1,95.71-.52,80.15.94,68.29c1.49-12.23,3.53-17.7,5.49-22.25,1.12-2.71,3.56-4.57,6.49-4.9,3.03-.34,6.1,1.03,7.83,3.49,1.65,2.35,1.86,5.35.55,8.03-1.23,2.63-2.05,5.42-2.66,8.27.16-.39.33-.78.49-1.16,7.21-16.78,17.33-23.7,34.95-23.87h0c2.28,0,3.69.2,4.83.35l.62.08c3.81.42,6.69,3.38,7.02,7.24.2,2.27-.52,4.43-1.86,6.06,1.6,1.23,2.98,2.82,4,4.66,1.91,3.44,2.33,7.31,1.14,10.62-.74,2.09-3.07,6.87-9.56,10.27.06,1.62.12,3.01.16,4.21.13,3.41.21,5.4.22,6.86,10.2,6.28,15.83,12.4,18.81,16.55,1.74,2.38,2.09,5.41.91,8.07-1.21,2.71-3.9,4.65-6.85,4.94-.26.03-.52.04-.78.04Zm-1.64-7.02s0,.01.01.02c0,0,0-.01-.01-.02Zm3.45-2.49s.01.02.02.03c0,0-.01-.02-.02-.03ZM15.93,50.05s-.01.03-.02.04c0-.01.01-.03.02-.04Zm-3.92-1.83s-.01.03-.02.04l.02-.04Zm45.91-5.89s-.01,0-.02,0c0,0,.01,0,.02,0Z"/>
      <path class="cls-3" d="m100.1,93.26c-2.24,0-4.36-.87-5.95-2.48-2.21-2.23-3.1-5.6-2.28-8.56.09-.34.21-.67.34-.98-1.05.79-2.16,1.5-3.31,2.05-6.25,3.06-15.2,2.23-20.17-5.29-3.84-5.64-4.17-13.48-3.19-18.95,1.32-6.7,4.43-12.53,9.01-16.94,9.79-9.49,20.38-10.54,28.51-10.38,9.82.1,15.74,3.52,20.22,6.84l.37.3c6.77,6.07,10.21,13.56,9.95,21.66-.29,8.84-5.14,17.59-13.32,24l-.16.12c-4.96,3.59-11.08,6.46-17.7,8.3-.78.21-1.56.31-2.33.31Zm8.02-44.28c.06,2.81-.33,5.83-1.2,9.16-1.31,4.72-2.88,8.33-5.46,12.56-.12.2-1.87,3.08-4.61,6.16.24-.09.5-.17.75-.24,5.61-1.62,9.44-3.35,12.03-5.44l.12-.09c4.53-3.43,7-7.61,6.96-11.77-.03-3.19-1.59-6.2-4.15-8.06l-.12-.09c-1.15-.89-2.64-1.63-4.32-2.2Zm-26.31,18.76c.08.26.15.48.23.65.07-.04.14-.09.22-.14,1.75-1.19,4.29-4.54,5.29-6.12,1.89-3.19,3.07-5.83,3.63-8.07.47-1.93.6-3.48.62-4.51-3.19,1.29-4.64,2.74-5.95,4.05-4.52,4.58-5.06,10.3-4.03,14.13Z"/>
      <path class="cls-3" d="m117.1,122.89c-2.64,0-5.26-1.28-6.98-3.68-1.14-1.59-1.69-3.48-1.55-5.33.17-2.25,1.32-4.25,3.24-5.63,7.23-5.2,16.26-13.47,23.44-23.25-2.1.16-4.19-.49-5.87-1.91-2.32-1.96-3.49-5.08-2.98-7.97.49-2.74,2.42-4.97,5.17-6,2.18-.87,6.66-2.36,13.85-3.5,1.64-5.26,2.33-9.28,3.02-13.82.63-4.51,4.5-7.49,9.02-6.95,4.71.57,8.01,4.55,7.51,9.05l-.02.19c-.44,2.95-1.48,7.63-2.58,11.75,2.27.9,3.96,2.16,5.19,3.44.12-.27.26-.54.42-.81,2.32-3.96,7.18-5.31,11.06-3.06,4.82,2.68,8.95,6.76,11.86,11.78,5.64,9.44,4.42,18.81-3.13,23.81h0c-5.64,3.73-12.95,3.52-16.47,3.42h-.4c-1.18-.04-2.3-.31-3.3-.78-.72,1.72-1.54,3.36-2.5,4.79l-.03.05c-3.3,4.82-7.98,7.41-13.11,7.36-5.31-.07-10.42-3.14-13.68-8.2-.13-.21-.26-.42-.37-.64-5.64,6.05-11.3,10.96-16.01,14.34-1.46,1.05-3.13,1.55-4.79,1.55Zm.73-6.28s0,0,0,0c0,0,0,0,0,0Zm25-12.28s0,0,0,0c0,0,0,0,0,0Zm9.86-4.77h0Zm18-.35s.03,0,.05,0c-.02,0-.03,0-.05,0Zm-23.16-3.84c1.24.5,2.38,1.33,3.32,2.5.33.4.63.72.89.97,1.64-2.46,2.98-6.59,3.98-12.28.26-1.83.29-3.39.23-4.53-2.5,4.71-5.36,9.18-8.41,13.34Zm23.61-1.26h.02-.02Zm.58-5.16c4.06.17,5.94-.22,6.7-.47-.09-.61-.44-1.72-1.26-3.07-1.22-2.06-3-3.92-5.11-5.39.25,2.84.04,5.78-.3,8.66l-.03.27Zm2.23-14.57s.03.02.05.03c-.02,0-.03-.02-.05-.03Z"/>
      <path class="cls-3" d="m204.2,109.57c-3.03,0-5.71-1.46-7.27-3.95-1.63-2.61-1.78-6-.38-8.65.76-1.44,1.93-2.58,3.34-3.31-2.98-1.01-5.76-2.97-7.86-6.1-3.83-5.74-4.16-13.55-3.19-18.95,1.32-6.7,4.43-12.53,9.01-16.94,9.79-9.49,20.37-10.53,28.5-10.38,9.82.1,15.74,3.51,20.22,6.84l.34.28c8.57,7.57,11.85,18.15,9,29.04-1.32,5.11-3.76,9.82-7.06,13.63-10.62,12.52-29.84,17.76-44.3,18.48-.12,0-.24,0-.35,0Zm-.19-6.55s-.02,0-.02,0c0,0,.01,0,.02,0Zm26.18-35.26c-1.15,4.43-2.73,8.06-5.44,12.51-.18.3-4.13,6.81-9.6,10.79,8.24-1.94,16.31-5.55,20.82-10.89,2.94-3.42,4.45-8.03,3.99-12.07-.24-2.12-1.16-5.1-4.14-7.28-1.19-.89-2.71-1.65-4.4-2.23.08,2.92-.33,5.94-1.23,9.16Zm-25.09,9.55c.08.26.15.48.23.65.07-.04.14-.09.22-.14,1.9-1.28,4.64-4.97,5.19-5.96l.1-.17c1.83-2.99,3.02-5.63,3.63-8.06.47-1.95.6-3.51.62-4.54-3.1,1.23-4.54,2.68-5.95,4.08-4.53,4.59-5.06,10.3-4.03,14.13Z"/>
      <path class="cls-3" d="m299.96,78.64c-2.26,0-4.41-.88-6.01-2.52-2.01-2.06-2.82-5-2.12-7.71-.25.02-.51.04-.76.05h-.2c-2.08,0-5.26-.27-8.81-2.6l-.1-.07c-3.31-2.29-5.42-5.53-5.93-9.15-.5-3.54.53-7.1,2.9-10.04,2.44-3.15,5.68-5.22,9.19-6.99,0-2.13,0-3.95.03-6.81-3.25-.41-6.28-1.4-9.4-3.03-2.72-1.42-4.38-4.07-4.47-7.08-.08-3.03,1.48-5.95,4-7.45,2.42-1.44,5.41-1.42,7.99.07.54.32,1.23.64,2.05.91.05-1.29.12-2.3.26-3.19.84-5.95,4.25-10.55,9.14-12.3,4.97-1.78,10.53-.29,15.26,4.08,4.26,3.91,5.21,7.99,5.25,10.72,0,.47-.01.95-.06,1.42,6.52-3.04,12.74-3.62,18.83-1.78,3.59,1.11,9.85,4.43,11.79,14.24l.02.1c.81,4.58-2.03,8.71-6.6,9.62-1.99.39-3.9.1-5.52-.73.87,1.12,1.5,2.23,1.94,3.24,2.16,4.89,1.8,10.89-.99,16.47-4.85,9.5-16.81,16.32-35.56,20.29-.71.17-1.41.25-2.11.25Zm4.44-26.6c0,3.68-.7,6.85-1.99,9.38,18.89-4.94,20.8-10.82,20.92-12.59.03-.36,0-.56-.01-.65-.13-.09-.45-.26-1.04-.42-4.32-1.16-10.56-.44-17.82,2.03,0,.35-.01.69-.03,1.24l-.03,1.02Zm20.26-20.44c.68.13,1.35.28,2.01.47,2.81.79,5.01,1.91,6.74,3.17-.42-.73-.73-1.54-.93-2.41-.42-1.79-.75-2.12-.76-2.13h-.02c-.59-.36-3.07-.8-7.04.91Zm-20.26-.7v2.38c.8-.22,1.63-.44,2.48-.64-.44-.76-.73-1.57-.89-2.38-.58.25-1.11.46-1.6.64Zm10.95-.1s0,0,0,0c0,0,0,0,0,0Zm16.37-.1h0Zm-28.7-16.52"/>
      <path class="cls-3" d="m331.43,110.69c-4.79,0-8.43-3.64-8.48-8.47-.04-4.74,3.46-8.38,8.14-8.46,16.83-.42,28.72-3.88,35.32-10.28,5.43-5.31,7.99-10.19,6.85-22.08-.46-4.69-1.77-7.06-2.85-7.77,1.05,6.15,1.54,13.64-.2,20.45-2.3,9.15-8.95,12.34-14.16,11.43-5.96-1.04-11.44-7.39-10.26-19.21.59-6.1,2.76-12.45,5.92-17.48-1.44-4.18-2.55-5.7-3.26-6.66-2.88-3.9-2.19-8.97,1.62-11.8,4.03-2.99,9.48-2.26,12.41,1.67,1.18,1.6,2.29,3.55,3.3,5.83,4.14-.96,8.49-.55,12.21,1.27,4.62,2.27,10.47,7.65,12.06,20.42,1.82,14.65-2.44,27.2-12.32,36.29h0c-10.4,9.58-26.84,14.86-46.29,14.86Zm-.1-6.63h-.02.02Z"/>
      <path class="cls-3" d="m357.19,126.74h-.03c-14.78-.06-29.13-.68-42.1-7.56-5.6-2.97-10.8-7.27-14.96-12.24-11.09,6.26-24.23,8.5-34.19,1.08-5.27-3.93-8.69-10.15-10.16-18.5-1.9-10.75-1.03-21.68-.07-31.08.17-1.71.45-3.44.71-5.12.61-3.9,1.24-7.94.54-11.13-.81-3.71-4.99-5.72-7.4-6.59-8.5-3.07-19.42-2.41-33.36,2h0c-2.78.88-5.69.27-7.78-1.63-2.19-2-3.18-5.19-2.53-8.14.63-2.87,2.71-5.12,5.55-6.02,15.14-4.79,27.99-5.79,39.28-3.06,13.62,3.3,22.4,12.74,22.92,24.63.18,4.15-.39,8.16-.94,12.03-.25,1.79-.49,3.47-.66,5.13-.55,5.65-.82,10.31-.85,14.66-.03,5.78.12,11.81,2.28,16.51.94,2.05,2.2,3.27,3.96,3.85,3.43,1.12,8.91-.11,14.72-3.29-1.09-5.26-.12-10.56,2.83-14.41,4.28-5.6,11.96-6.73,17.86-2.62,4.07,2.83,5.13,6.43,5.3,8.94.35,5.05-2.57,9.61-4.97,12.45,3.71,4.48,8.38,7.81,13.9,9.93,9.37,3.6,19.94,3.64,30.16,3.68,2.95.01,5.57,1.51,7.01,4.01,1.49,2.6,1.48,5.95-.03,8.53-1.44,2.47-4.05,3.95-6.98,3.95Z"/>
      <g>
        <path class="cls-3" d="m361.9,125.59c-2.28,0-4.53-.09-6.73-.28h0c-3.35-.28-5.94-2.91-6.15-6.27-.21-3.34,2.01-6.26,5.28-6.96,5.58-1.19,13.69-3.08,20.64-5.33,13.64-4.41,20.53-12.05,22.86-15.12,1.19-1.57,2.99-2.53,4.95-2.63,1.97-.1,3.88.65,5.24,2.08l9.15,9.64c1.46,1.54,2.11,3.7,1.74,5.78-.36,2.07-1.71,3.87-3.59,4.81-5.45,2.73-19.92,9.42-36.57,12.65-5.55,1.08-11.26,1.62-16.82,1.62Zm-5.87-10.55h0,0Zm47.25-13.95c-2.23,2.38-5.47,5.35-9.88,8.23,5.1-1.76,9.51-3.6,12.84-5.11l-2.96-3.12Z"/>
        <path class="cls-3" d="m357.51,127.1c-2.86,0-5.43-1.81-6.35-4.62-1.04-3.18.37-6.57,3.36-8.07,5.11-2.56,12.49-6.43,18.63-10.34,12.09-7.7,16.84-16.82,18.32-20.38.75-1.81,2.26-3.19,4.13-3.79,1.88-.6,3.92-.35,5.6.7l11.28,7.03c1.8,1.12,2.97,3.05,3.14,5.16.17,2.1-.68,4.18-2.26,5.56-4.59,4.01-16.93,14.13-32.21,21.43-7.19,3.43-14.95,5.93-22.45,7.22h0c-.39.07-.79.1-1.18.1Zm-.57-10.26s0,0,0,0h0s0,0,0,0Zm42.22-25.38c-1.56,2.87-3.95,6.55-7.49,10.45,4.5-2.98,8.3-5.88,11.14-8.17l-3.65-2.28Z"/>
        <path class="cls-3" d="m357.71,128.12c-2.79,0-5.3-2.02-5.81-4.84l-1.38-7.49c-.29-1.56.08-3.19,1-4.48.92-1.29,2.35-2.17,3.91-2.41l3.39-.52c3.01-.46,5.86,1.42,6.6,4.38l1.88,7.39c.41,1.61.12,3.32-.79,4.7s-2.37,2.32-4,2.58l-3.9.62c-.3.05-.61.07-.91.07Zm4.33-6.7h0s0,0,0,0Zm-3.53-2.95s.08.02.12.03c.2-.12.39-.26.57-.41-.05-.02-.11-.04-.16-.06-.18.13-.36.28-.52.44Zm-3.07-3.16s0,0,0,0h0Z"/>
        <path class="cls-3" d="m358.23,129.19h-3.44c-3.04-.01-5.56-2.3-5.86-5.33l-.73-7.6c-.16-1.65.39-3.3,1.5-4.52s2.69-1.93,4.35-1.94h3.95s0-.01.01-.01c3.22,0,5.81,2.51,5.9,5.73l.22,7.62c.04,1.59-.57,3.15-1.67,4.28-1.1,1.13-2.64,1.78-4.22,1.78Zm-2.34-9.64c.05.03.1.05.15.08.21-.1.41-.22.59-.36-.04-.02-.07-.03-.11-.05-.22.09-.43.2-.64.33Z"/>
      </g>
    </g>
    <g>
      <path class="cls-1" d="m72.76,111.99c-1.33,0-2.55-.65-3.39-1.84-2.34-3.22-6.75-8.03-14.59-13.01-2.67,5.24-7.95,8.08-14.11,7.48-7.56-.68-10.92-5.89-10.84-10.45.09-4.72,3.76-9.98,11.62-10.4,2.06-.05,4.13.25,6.57,1-.08-2.78-.27-7.5-.38-9.94-3.4.28-9.23.03-12.49-4.15-2.14-2.75-2.53-6.54-1.05-10.14,1.55-4.13,4.86-7.63,7.89-10.16-5.75,2.29-8.74,6.7-12.16,14.06-3.75,8.08-6.17,18.21-8.11,26.36l-.51,2.15c-.05.22-.11.46-.17.73-.58,2.61-1.94,8.72-7.95,8.72-2.07-.02-3.82-.84-5.22-2.43-5.28-6.02-4.2-22.13-3.08-31.19,1.43-11.73,3.35-16.9,5.21-21.2.61-1.47,1.84-2.42,3.37-2.59,1.62-.18,3.32.57,4.24,1.88.84,1.2.93,2.69.24,4.1-2.84,6.07-3.69,12.57-4.51,18.84-.56,4.56-1.7,15.87-.18,22.55.03.11.05.22.08.32.05-.14.09-.29.14-.47.4-1.47.83-3.22,1.32-5.15,1.82-7.26,4.3-17.21,8-25.75,5.5-12.8,12.95-21.36,31.43-21.54,1.98,0,3.19.17,4.26.32.24.03.47.06.7.09,1.97.19,3.44,1.7,3.62,3.74.19,2.13-1.09,4.07-3.03,4.61-9.99,2.82-17.05,10.9-18.2,14.63-.27.95-.24,1.67.08,2.13.45.63,1.59,1,3.29,1.08.75.05,1.54,0,2.37-.09-.09-2.48-.17-5.05.55-8.1,1.07-5.09,5.7-8.23,10.76-7.28,2.76.6,5.29,2.57,6.8,5.28,1.37,2.47,1.69,5.18.88,7.44-.66,1.85-2.91,6.36-9.87,9.15.1,2.77.19,4.99.26,6.79.21,5.42.28,7.12.17,8.87,10.86,6.35,16.64,12.54,19.59,16.65.95,1.3,1.14,2.85.52,4.24-.66,1.47-2.11,2.51-3.7,2.67-.14.01-.27.02-.4.02Zm-19.19-18.61l1.31.8c8.98,5.47,13.98,10.89,16.58,14.48.4.56.88.81,1.45.76.66-.07,1.32-.54,1.6-1.16.24-.55.16-1.11-.26-1.67-2.87-4-8.57-10.08-19.49-16.33l-.72-.41.07-.82c.17-1.98.13-3.1-.11-9.37-.08-2-.18-4.51-.29-7.72l-.03-.94.89-.32c6.62-2.38,8.64-6.33,9.2-7.92.56-1.56.3-3.5-.71-5.33-1.15-2.07-3.04-3.57-5.06-4.01-3.61-.68-6.95,1.6-7.73,5.32-.66,2.78-.58,5.08-.49,7.53l.07,2.28-1.16.15c-1.32.16-2.68.33-4,.25-2.56-.12-4.29-.82-5.24-2.15-.81-1.13-.97-2.6-.46-4.36,1.48-4.82,9.44-13.4,19.97-16.38.89-.25,1.23-1.16,1.16-1.91-.03-.38-.23-1.29-1.34-1.4-.28-.03-.52-.07-.77-.1-1.03-.14-2.1-.29-3.9-.29-17.14.16-23.83,7.77-29.08,19.98-3.62,8.35-6.07,18.18-7.87,25.36-.49,1.95-.93,3.71-1.33,5.21-.42,1.46-1.14,3.37-2.69,3.37-.02,0-.04,0-.05,0-1.72-.05-2.24-2.35-2.47-3.34-1.55-6.82-.58-17.62.14-23.44h0c.85-6.48,1.72-13.18,4.74-19.63.29-.59.28-1.08-.02-1.51-.38-.54-1.16-.88-1.85-.8-.59.07-1.02.41-1.28,1.03-1.86,4.31-3.64,9.11-5.02,20.51-1.78,14.49-.86,25.39,2.46,29.18.91,1.04,1.99,1.55,3.3,1.56,3.63,0,4.71-3.46,5.43-6.71.06-.29.12-.56.18-.78l.51-2.13c1.97-8.26,4.42-18.53,8.28-26.85,4.82-10.37,9.12-15.58,20.56-17.1l.83,2.38c-6.09,3.62-10.72,8.42-12.39,12.84-1.15,2.82-.9,5.58.69,7.62,2.94,3.78,9.02,3.38,11.5,3.03l1.39-.2.07,1.41c.08,1.53.48,11.11.48,13.24v1.84l-1.73-.63c-2.92-1.06-5.19-1.51-7.35-1.44-6.18.33-9.08,4.32-9.15,7.88-.06,3.52,2.54,7.3,8.51,7.84,5.58.54,10.11-2.17,12.1-7.25l.56-1.43Zm-11.44,5.62c-.32,0-.64-.02-.98-.05-4.06-.29-5.81-2.65-5.73-4.86.08-2.38,2.27-4.9,6.17-4.9,2.73,0,5.79,1.1,7.87,2.03l1.02.45-.31,1.08c-1.13,3.96-4.1,6.24-8.05,6.24Zm-.54-7.23c-2.2,0-3.55,1.23-3.59,2.42s1.28,2.05,3.36,2.2c1.7.15,4.55-.11,5.95-3.27-2.19-.87-4.19-1.34-5.72-1.34Zm11.94-24.04l-.13-1.83c-.14-1.97-.27-4.48,0-6.5.12-1.23.61-2.24,1.43-2.87.72-.56,1.64-.78,2.65-.63,2.37.25,4.13,2.6,4.24,4.56.08,2.41-2.05,4.53-6.51,6.52l-1.68.75Zm3.34-9.3c-.19,0-.35.04-.46.13-.23.18-.4.59-.45,1.13-.17,1.24-.17,2.71-.11,4.1,3.07-1.66,3.3-2.86,3.29-3.22-.05-.84-.97-2.02-1.95-2.12h-.08c-.09-.02-.17-.03-.24-.03Z"/>
      <path class="cls-1" d="m100.09,89.4c-1.21,0-2.33-.46-3.19-1.34-1.23-1.25-1.76-3.18-1.3-4.81.4-1.45,1.52-2.51,3.06-2.9,6.11-1.76,10.39-3.72,13.41-6.14,5.56-4.22,8.57-9.5,8.51-14.92-.05-4.41-2.2-8.57-5.75-11.15-2.84-2.18-6.98-3.65-11.42-4.09.35.87.59,1.84.68,2.85.4,2.97.11,6.35-.91,10.26-1.19,4.29-2.64,7.62-5.02,11.53-1.37,2.29-6.02,8.75-10.92,11.11-3.85,1.89-11.11,2.39-15.29-3.97-3.19-4.66-3.43-11.38-2.59-16.11,1.15-5.86,3.87-10.98,7.88-14.84,8.72-8.46,17.92-9.45,25.75-9.3,8.72.09,13.8,2.98,17.99,6.08l.09.08c5.89,5.28,8.89,11.74,8.66,18.66-.25,7.69-4.57,15.38-11.84,21.09l-.04.03c-4.59,3.32-10.28,5.99-16.46,7.7-.44.12-.87.17-1.3.17Zm-2.03-48.11l3.01.05c5.85.09,11.57,1.86,15.3,4.74,4.18,3.03,6.73,7.96,6.78,13.18.07,6.25-3.31,12.28-9.51,16.97-3.27,2.63-7.82,4.73-14.32,6.6-.69.18-1.09.54-1.25,1.1-.21.76.06,1.71.65,2.31.53.53,1.2.7,1.98.49,5.86-1.63,11.26-4.15,15.61-7.29,6.66-5.24,10.61-12.21,10.84-19.13.2-6.12-2.48-11.86-7.76-16.62-4.42-3.27-8.92-5.46-16.45-5.54-7.33-.14-15.88.78-23.93,8.58-3.63,3.49-6.09,8.15-7.14,13.46-.72,4.01-.57,10.15,2.19,14.2,3.28,4.99,8.99,4.57,12.03,3.08,3.86-1.86,8.08-7.2,9.84-10.13,2.25-3.69,3.62-6.84,4.74-10.86.93-3.56,1.21-6.61.84-9.3-.14-1.53-.66-2.86-1.43-3.69l-2.04-2.21Zm-16.6,33.87c-.6,0-1.18-.1-1.74-.31-1.31-.48-3.08-1.8-4.11-5.35-1.51-5.58-.81-13.86,5.67-20.43,1.98-1.98,4.68-4.68,11.5-6.64,1.78-.41,3.45.26,4.33,1.68.63.94.98,2.13,1.07,3.7.11,1.32.16,4.07-.75,7.82-.72,2.87-2.15,6.09-4.38,9.86-.99,1.59-4.19,6.09-7.25,8.16-1.55,1.01-3,1.52-4.33,1.52Zm12.33-30.28c-.13,0-.25.02-.36.04-6.11,1.76-8.44,4.09-10.32,5.96-5.71,5.79-6.34,13.05-5.02,17.92.4,1.37,1.16,3.13,2.52,3.63.98.36,2.25.05,3.75-.94,2.66-1.8,5.65-6.02,6.48-7.35,2.08-3.52,3.42-6.51,4.08-9.13.6-2.49.86-5.04.68-7v-.04c-.06-1.1-.27-1.88-.67-2.47-.29-.46-.74-.62-1.15-.62Z"/>
      <path class="cls-1" d="m117.14,119.01c-1.54,0-3-.84-3.88-2.06-.61-.85-.91-1.84-.84-2.78.08-1.1.67-2.09,1.64-2.79,9.61-6.92,22.3-19.08,30.12-33.1-3.49.75-5.07,1.39-6.84,2.11-.39.16-.79.32-1.22.49-1.5.55-3.04.27-4.25-.75-1.29-1.08-1.94-2.78-1.66-4.33.26-1.44,1.24-2.53,2.77-3.08,2.18-.87,7.08-2.5,15.38-3.63,2.28-6.72,3.1-11.39,3.92-16.75.32-2.44,2.26-3.95,4.73-3.65,2.26.27,4.43,2.14,4.13,4.79-.57,3.84-2.19,10.64-3.55,15.09,3.54.48,6.26,1.97,8.1,4.44,3.05,4.15,2.88,9.76,2.24,15.21l-.02.13c-.07.32-.15.69-.24,1.12-.85,3.92-2.62,12.07-5.77,16.8h0c-2.54,3.73-6.02,5.75-9.87,5.69-4.01-.06-7.93-2.46-10.48-6.43-1.52-2.4-.62-4.93,1.01-6.09,1.73-1.24,3.92-.9,5.31.83,2,2.48,3.6,3.08,4.19,3.04.87-.09,1.7-.71,2.73-2.05,2.06-2.91,3.63-7.54,4.79-14.13.45-3.12.53-7.4-.72-9.07-.78-.97-2.38-1.26-4.55-1.31-8.92,18.65-24.18,33.94-34.64,41.44-.8.57-1.66.82-2.5.82Zm31.79-44.25l-1.19,2.32c-7.87,15.42-21.78,28.91-32.18,36.39-.36.26-.55.55-.58.89-.03.33.11.73.36,1.08.5.7,1.66,1.45,2.78.65,10.35-7.41,25.51-22.65,34.16-41.18l.35-.74h.82c2.68,0,5.68.18,7.39,2.32,2.13,2.84,1.57,8.67,1.23,11.05-1.22,7.01-2.94,11.99-5.26,15.26-1.02,1.34-2.44,2.87-4.59,3.09-1.93.12-4.3-1.37-6.41-3.98-.73-.91-1.44-.61-1.8-.36-.66.47-1.05,1.49-.34,2.61,2.08,3.23,5.2,5.19,8.35,5.24,2.9.02,5.67-1.57,7.7-4.55,2.88-4.33,4.58-12.15,5.39-15.91.09-.4.17-.76.23-1.07.57-4.91.74-9.91-1.76-13.31-1.63-2.19-4.26-3.39-7.81-3.55l-1.71-.08.55-1.62c1.38-4.07,3.33-12.06,3.94-16.14.13-1.19-1.09-1.8-1.89-1.9-.62-.07-1.68.02-1.87,1.46-.87,5.72-1.74,10.65-4.29,17.98l-.26.75-.79.1c-8.49,1.09-13.41,2.71-15.59,3.58-.69.25-1.06.62-1.15,1.13-.11.64.21,1.42.78,1.91.35.3.93.59,1.68.31.39-.15.78-.31,1.16-.46,2.3-.93,4.29-1.73,10-2.78l2.56-.47Zm24.75,25.84c-.85,0-1.61-.02-2.27-.04h-.41c-1.53-.05-2.8-.8-3.48-2.09-.69-1.3-.63-2.91.14-4.1.72-1.11,1.95-1.69,3.38-1.59,6.45.33,9.08-.58,10.14-1.41,2.66-2.07-.13-7.01-.71-7.98-1.75-2.95-4.45-5.59-7.62-7.46-2.43-1.44-2.5-3.86-1.54-5.51,1.08-1.84,3.54-2.97,5.79-1.66,4.27,2.37,7.89,5.96,10.45,10.37,4.65,7.79,3.94,14.77-1.92,18.65h0c-3.71,2.45-8.49,2.82-11.96,2.82Zm-2.94-5.25c-.44,0-.73.14-.92.43-.26.4-.27,1.02-.02,1.49.24.45.67.69,1.27.7h.42c3.08.1,8.8.26,12.73-2.34h0c6.6-4.37,2.98-12.08,1.12-15.2-2.33-4.02-5.62-7.28-9.5-9.44-1.03-.59-1.95.13-2.3.72-.26.45-.53,1.31.62,1.99,3.53,2.09,6.55,5.05,8.52,8.36,2.94,4.85,2.97,9.09.08,11.34-2.09,1.61-5.97,2.25-11.88,1.95-.05,0-.1,0-.15,0Z"/>
      <path class="cls-1" d="m204.16,105.71c-1.67,0-3.1-.77-3.95-2.14-.91-1.46-1.01-3.34-.24-4.79.71-1.34,2.07-2.14,3.72-2.2,11.29-.55,27.31-4.52,35.24-13.92,3.65-4.25,5.47-9.85,4.88-15-.47-4.13-2.44-7.57-5.69-9.96-2.85-2.14-7.06-3.62-11.41-4.08.35.87.58,1.84.67,2.84.43,3.18.13,6.56-.92,10.29-1.05,4.03-2.5,7.37-5.01,11.5-1.37,2.28-6.01,8.75-10.92,11.11-4.58,2.24-11.31,1.95-15.28-3.96-3.19-4.78-3.39-11.67-2.59-16.12,1.15-5.86,3.87-10.98,7.88-14.84,8.72-8.46,17.9-9.45,25.75-9.3,8.72.09,13.8,2.98,17.99,6.08l.08.07c7.55,6.66,10.32,15.6,7.82,25.17-1.18,4.55-3.34,8.73-6.26,12.09-9.81,11.59-27.9,16.46-41.56,17.14-.07,0-.14,0-.2,0Zm17.19-54.85l3.01.05c5.74.09,11.46,1.86,15.29,4.73,3.83,2.81,6.16,6.88,6.72,11.74.67,5.85-1.38,12.19-5.48,16.97-8.46,10.02-25.27,14.25-37.09,14.82-.76.03-1.28.31-1.56.83-.34.63-.28,1.54.14,2.21.28.44.83.98,1.86.93,12.5-.63,30.42-5.25,39.71-16.23h.01c2.66-3.07,4.64-6.9,5.71-11.07,2.24-8.56-.24-16.57-6.99-22.55-4.42-3.27-8.92-5.47-16.45-5.54-7.33-.14-15.87.78-23.93,8.58-3.63,3.49-6.09,8.15-7.14,13.46-.71,3.96-.56,10.07,2.2,14.21,3.58,5.33,9.42,4.34,12.02,3.07,3.86-1.86,8.08-7.2,9.84-10.13,2.01-3.3,3.58-6.4,4.73-10.84.96-3.41,1.24-6.45.85-9.33-.14-1.53-.66-2.86-1.43-3.69l-2.04-2.21Zm-16.6,33.87c-.6,0-1.18-.1-1.74-.31-1.3-.48-3.08-1.8-4.11-5.35-1.51-5.58-.82-13.86,5.67-20.43,2.03-2.03,4.8-4.8,11.52-6.65,1.6-.49,3.38.19,4.3,1.66.65.98.99,2.17,1.08,3.74.11,1.27.16,4.03-.75,7.8-.77,3.08-2.21,6.31-4.39,9.87-.63,1.12-3.97,5.93-7.24,8.14-1.55,1.01-3,1.52-4.33,1.52Zm12.39-30.31c-.12,0-.23.02-.33.05-6.1,1.68-8.49,4.07-10.41,5.99-5.71,5.79-6.34,13.05-5.02,17.92.4,1.37,1.16,3.13,2.52,3.63.98.36,2.25.05,3.75-.94,2.62-1.77,5.72-5.99,6.45-7.3,2.07-3.38,3.4-6.37,4.11-9.18.6-2.49.86-5.04.68-7-.06-1.14-.28-1.92-.67-2.51l-.03-.04c-.27-.44-.69-.61-1.07-.61Z"/>
      <path class="cls-1" d="m299.95,74.78c-1.23,0-2.37-.47-3.24-1.36-1.1-1.12-1.53-2.71-1.12-4.15.25-.88,1.03-2.44,3.5-3.07,17.92-4.03,27.63-9.95,28.1-17.12.2-2.73-1.01-4.28-3.92-5.06-7.38-1.99-17.09.92-22.72,3.06v.7c.05,1.84.05,1.87.01,3.12l-.03,1.09c0,7.87-3.42,12.35-9.62,12.59h-.01c-1.77,0-4.08-.23-6.73-1.97-2.48-1.71-3.96-3.96-4.33-6.52-.35-2.48.4-5.01,2.12-7.11,2.42-3.14,6.09-5.12,10.01-6.95,0-4.42,0-6.32.07-12.87-4.16.04-7.76-.87-11.51-2.82-1.47-.77-2.34-2.14-2.39-3.77-.05-1.65.78-3.23,2.11-4.02,1.22-.73,2.7-.69,4.07.1.81.49,3.57,1.95,7.75,2.13v-.65c.06-3.24.1-5.19.31-6.55.62-4.5,3.1-7.95,6.62-9.21,3.57-1.28,7.7-.08,11.34,3.28,2.58,2.36,3.97,5.11,4.01,7.94.04,2.53-1.03,5-3.03,6.95-1.54,1.54-3.67,2.84-6.72,4.1-1.75.78-2.91,1.1-4.08,1.4v10.5c6.47-2.27,16.94-5.02,25.09-2.75,4.63,1.31,7.91,3.87,9.47,7.4,1.67,3.78,1.33,8.7-.91,13.18-4.28,8.4-15.37,14.53-32.97,18.25-.43.11-.85.16-1.26.16Zm17.75-34.01c2.15,0,4.25.23,6.24.76,4.1,1.09,6.11,3.77,5.82,7.73-.56,8.54-10.68,15.09-30.07,19.45-.6.15-1.4.5-1.62,1.26-.15.54.04,1.19.49,1.65.3.3.96.77,2.05.49h.05c16.57-3.51,27.37-9.35,31.22-16.91,1.89-3.79,2.22-7.9.86-10.98-1.26-2.85-3.88-4.85-7.81-5.96-8.23-2.29-19.34,1.1-25.23,3.32l-1.74.66v-16.19l1.59-.41c1.23-.31,2.29-.59,4.05-1.37,2.75-1.14,4.62-2.27,5.92-3.57,1.51-1.48,2.29-3.23,2.26-5.07-.03-2.1-1.13-4.21-3.18-6.08-2.96-2.73-6.05-3.7-8.73-2.75-2.6.93-4.45,3.61-4.94,7.17-.19,1.21-.22,3.2-.27,6.22l-.06,3.18-1.24.02c-5.38.1-9.04-1.71-10.35-2.5-.54-.31-1.03-.35-1.45-.11-.52.31-.88,1.03-.86,1.74.01.48.2,1.13,1.01,1.55,3.77,1.97,7.24,2.71,11.56,2.49l1.37-.07v1.37c-.09,8.06-.09,9.67-.09,15v.82l-.75.35c-3.9,1.8-7.58,3.66-9.82,6.56-1.28,1.57-1.83,3.38-1.59,5.15.26,1.83,1.37,3.48,3.21,4.75,2.05,1.35,3.81,1.53,5.26,1.53,4.69-.18,7.1-3.57,7.1-10.05l.03-1.13q.04-1.2,0-2.99l-.05-2.5.83-.33c5.3-2.1,12.34-4.24,18.93-4.24Zm-27.51,18.5c-.96,0-2.01-.3-3.08-.92-1.14-.71-1.85-1.72-2.01-2.87-.17-1.19.23-2.4,1.13-3.42,1.25-1.34,2.43-2.43,6.45-4.45l1.86-.93v7.27c-.09,1.39-.44,2.59-.99,3.48-.81,1.21-1.99,1.83-3.36,1.83Zm1.78-8.37c-2.39,1.33-3.12,2.13-3.84,2.9-.37.42-.55.89-.49,1.31.07.5.46.83.78,1.03.94.53,2.25.97,2.96-.1.3-.49.53-1.29.58-2.17v-2.97Zm48.55-15.48c-1.87,0-3.75-1.09-4.28-3.46-.5-2.15-1.09-3.4-1.99-4.18-2.18-1.98-8.96-2.52-17.93,4.36-2,1.52-4.5.72-5.75-.93-1.13-1.48-1.35-3.83.83-5.51,5.67-4.39,14.38-9.89,24.48-6.84,3.35,1.04,7.65,3.83,9.12,11.29.5,2.85-1.4,4.76-3.54,5.18-.31.06-.62.09-.93.09Zm-10.68-11.48c2.81,0,4.92.82,6.13,1.92,1.66,1.45,2.34,3.61,2.79,5.53h0c.29,1.31,1.36,1.58,2.19,1.41.84-.17,1.74-.84,1.51-2.18-1.22-6.18-4.66-8.47-7.34-9.3-6.81-2.06-13.85-.02-22.15,6.42-.94.73-.71,1.44-.36,1.91.39.51,1.31,1.07,2.14.44,5.98-4.58,11.19-6.15,15.08-6.15Zm-31.96-.84v-1.72c0-.84,0-1.69-.02-2.53-.02-1.67-.03-3.25.02-4.55v-.02c.15-2.64,1.24-4.54,2.99-5.22,1.06-.41,3.27-.68,6.14,2.13,1.59,1.64,2.27,3.25,2.03,4.83-.26,1.68-1.54,3.17-3.83,4.41-2.09,1.05-3.78,1.63-5.69,2.18l-1.65.48Zm2.58-8.68c-.05,1.23-.03,2.77-.02,4.41,0,.27,0,.54,0,.81,1.16-.39,2.29-.84,3.58-1.48,1.02-.56,2.32-1.47,2.47-2.52.11-.73-.33-1.62-1.3-2.62-1.3-1.28-2.58-1.86-3.39-1.55-.74.29-1.26,1.42-1.35,2.95Z"/>
      <path class="cls-1" d="m331.43,106.82c-3,0-4.59-2.33-4.61-4.64-.02-2.23,1.47-4.51,4.35-4.56,17.86-.44,30.62-4.27,37.94-11.38,7.04-6.88,9.13-13.48,8-25.23-.59-6.03-2.49-9.88-5.51-11.12-2.02-.83-4.21-.31-5.74.67,1.4,6.24,2.54,14.95.6,22.54-1.71,6.8-6.13,9.21-9.75,8.58-4.2-.74-8.02-5.66-7.08-15.02.6-6.16,2.95-12.57,6.33-17.28-1.91-6.15-3.47-8.26-4.41-9.54-1.9-2.57-.91-5.12.82-6.4,2.01-1.49,5.18-1.57,7,.88,1.53,2.07,2.93,4.87,4.17,8.35,4.12-1.92,8.88-1.98,12.75-.09,3.77,1.85,8.55,6.37,9.92,17.42,1.66,13.36-2.18,24.76-11.11,32.97-9.69,8.92-25.2,13.84-43.68,13.84Zm38.03-59.92c1.01,0,2.06.18,3.11.62,2.75,1.13,6.22,4.35,7.09,13.25,1.2,12.49-1.17,19.9-8.77,27.32-7.9,7.68-20.88,11.64-39.68,12.11-1.76.03-1.83,1.64-1.83,1.96,0,.96.55,2.09,2.04,2.09,17.83,0,32.72-4.67,41.93-13.16h0c8.41-7.73,11.87-18.08,10.29-30.76-.98-7.85-3.92-13.18-8.5-15.43-4.23-2.07-8.81-.98-11.69.72l-1.38.82-.5-1.53c-1.59-4.85-3.21-7.6-4.28-9.06-.95-1.27-2.56-.97-3.4-.34-.57.42-1.36,1.34-.28,2.8,1.39,1.88,3.03,4.43,4.99,10.94l.19.63-.39.52c-3.31,4.39-5.64,10.57-6.21,16.52-.77,7.67,2.03,11.71,4.96,12.23,2.44.42,5.49-1.47,6.8-6.67,1.9-7.44.61-16.15-.8-22.15l-.18-.78.61-.51c1.36-1.13,3.5-2.14,5.88-2.14Zm-11.68,29.05c-.38,0-.76-.12-1.1-.35-1.47-.99-2.14-4.14-1.78-8.43.35-3.65,1.41-7.42,3.08-10.91l1.76-3.69.67,4.03c.68,4.1.96,7.76.81,10.89-.21,4.72-1.08,7.49-2.57,8.24-.28.14-.58.21-.87.21Zm.73-13.9c-.52,1.78-.88,3.59-1.05,5.35-.22,2.68.05,4.47.34,5.39.32-.84.71-2.49.84-5.41.07-1.62.03-3.41-.14-5.33Z"/>
      <path class="cls-1" d="m357.19,122.87h-.02c-14.28-.06-28.11-.64-40.3-7.11-6.15-3.26-11.77-8.25-15.87-13.95-9.22,5.97-22.5,10.77-32.78,3.11-4.45-3.32-7.37-8.73-8.66-16.07-1.81-10.26-.97-20.87-.03-30.01.16-1.6.43-3.29.68-4.92.67-4.25,1.35-8.65.5-12.56-1.21-5.52-6.7-8.26-9.86-9.4-9.33-3.37-21.05-2.73-35.84,1.95h0c-1.48.47-2.93.17-4-.8-1.19-1.08-1.72-2.83-1.36-4.45.34-1.52,1.41-2.68,2.94-3.16,14.45-4.58,26.61-5.55,37.2-2.99,12.05,2.92,19.52,10.79,19.97,21.04.17,3.79-.38,7.62-.91,11.32-.25,1.75-.51,3.56-.68,5.3-.57,5.77-.84,10.54-.86,15.01-.04,6.21.14,12.73,2.63,18.15,1.38,3.01,3.49,5,6.27,5.91,6.48,2.12,14.81-1.92,18.1-3.75.83-.46,1.62-.93,2.36-1.4-1.5-4.09-1.88-9.64,1.36-13.88,3.05-3.99,8.34-4.74,12.58-1.79,2.26,1.57,3.49,3.6,3.65,6.04.37,5.4-4.61,10.47-6.14,11.89,0,0-.01.01-.02.02,4.42,6.39,10.33,11.04,17.57,13.82,10.03,3.85,21.45,3.9,31.53,3.94,1.58,0,2.92.76,3.67,2.07.81,1.42.81,3.25-.01,4.66-.75,1.29-2.08,2.03-3.64,2.03Zm-54.06-22.51c3.86,5.36,9.15,10.05,14.95,13.12,11.68,6.19,25.16,6.76,39.11,6.81h0c.65,0,1.13-.25,1.42-.75.36-.61.36-1.47,0-2.09-.29-.51-.78-.77-1.44-.77-10.3-.04-21.97-.09-32.44-4.11-7.53-2.89-13.95-7.91-18.6-14.52-.92.76-1.92,1.53-3,2.3ZM237.79,27.27c5.11,0,9.73.76,13.92,2.27,3.66,1.32,10.03,4.54,11.51,11.27.96,4.38.23,9.02-.47,13.51-.26,1.67-.51,3.25-.67,4.78-.92,8.97-1.75,19.37,0,29.3,1.18,6.68,3.76,11.54,7.67,14.45,8.69,6.48,20.8,2.6,29.8-3.18-.67-1.05-1.28-2.13-1.84-3.21-.69.43-1.41.85-2.17,1.27-3.58,2-12.72,6.38-20.15,3.95-3.49-1.14-6.12-3.59-7.81-7.28-2.71-5.9-2.9-12.74-2.86-19.24.03-4.55.3-9.39.88-15.25.18-1.8.44-3.64.69-5.41.51-3.58,1.04-7.29.88-10.84-.4-9.04-7.13-16.01-18-18.65-10.11-2.45-21.83-1.49-35.81,2.94-.66.21-1.07.63-1.2,1.26-.16.72.08,1.54.58,2,.39.36.88.44,1.49.25h0c8.83-2.8,16.65-4.19,23.57-4.19Zm62.09,67.78c.54,1.08,1.14,2.14,1.8,3.19,1.05-.75,2.05-1.53,2.98-2.3-.66-.98-1.31-2.04-1.84-3.16-.9.78-1.88,1.53-2.94,2.27Zm4.93-4.13c.44,1.12,1.08,2.21,1.79,3.29,2.53-2.43,5.29-6.29,5.06-9.57-.11-1.64-.95-2.98-2.56-4.1-3.11-2.17-6.84-1.66-9.05,1.25-2.46,3.22-2.28,7.48-1.2,10.83,1.11-.8,2.12-1.62,3.03-2.46-.27-1.24-.32-2.54,0-3.9.35-1.51.94-2.5,1.8-3.02.46-.28,1.24-.56,2.31-.28,1.36.36,2.08,1.5,2.13,2.15.17,1.91-1.42,3.9-3.32,5.81Zm.32-5.5s-.08,0-.11.02c-.06.04-.36.27-.62,1.39-.07.29-.11.59-.14.88.9-1.07,1.23-1.74,1.29-2.15-.05-.04-.12-.08-.21-.11-.06-.02-.14-.03-.21-.03Zm.43-.08s0,0,0,0c0,0,0,0,0,0Z"/>
      <g>
        <path class="cls-1" d="m361.91,121.72c-2.47,0-4.63-.11-6.42-.26h0c-1.45-.12-2.52-1.21-2.61-2.66-.09-1.43.83-2.64,2.23-2.94,5.67-1.21,13.92-3.13,21.02-5.43,14.68-4.75,22.2-13.1,24.75-16.47.5-.66,1.26-1.06,2.08-1.11.85-.04,1.65.28,2.22.88l9.14,9.64c.63.66.9,1.56.74,2.45-.16.89-.71,1.62-1.51,2.03-5.31,2.66-19.4,9.17-35.57,12.31-6.09,1.18-11.59,1.55-16.07,1.55Zm41.21-26.29s0,0-.01,0c-.07,0-.13.03-.17.09-2.7,3.56-10.63,12.39-26.01,17.37-7.21,2.33-15.55,4.28-21.28,5.5-.08.02-.21.05-.2.25.01.24.18.25.26.26h0c4.89.41,12.63.53,21.79-1.25,15.86-3.08,29.7-9.48,34.91-12.09.07-.04.11-.09.13-.17,0-.05.01-.14-.07-.23l-9.14-9.64c-.07-.07-.15-.08-.2-.08Z"/>
        <path class="cls-1" d="m357.5,123.24c-1.22,0-2.28-.76-2.68-1.96-.45-1.36.14-2.76,1.42-3.41,5.19-2.6,12.69-6.53,18.98-10.53,13.02-8.29,18.19-18.26,19.82-22.16.32-.76.95-1.34,1.74-1.6.8-.26,1.66-.15,2.37.3l11.27,7.03c.77.48,1.26,1.28,1.33,2.19.07.9-.28,1.75-.95,2.34-4.47,3.91-16.48,13.76-31.34,20.86-8.68,4.15-16.45,6.04-21.44,6.9h0c-.17.03-.35.05-.52.05Zm40.14-37.22s-.06,0-.08.01c-.07.02-.12.07-.14.13-1.71,4.13-7.18,14.67-20.81,23.35-6.38,4.06-13.96,8.04-19.21,10.66-.08.04-.19.1-.13.3.07.22.23.19.31.18h0c4.83-.83,12.36-2.67,20.77-6.69,14.57-6.96,26.36-16.63,30.75-20.47.06-.05.09-.12.08-.2,0-.05-.03-.14-.13-.21l-11.27-7.03c-.05-.03-.1-.04-.14-.04Z"/>
        <path class="cls-1" d="m357.69,124.26c-.97,0-1.81-.68-1.99-1.67l-1.38-7.49c-.1-.54.03-1.1.34-1.54.32-.45.81-.75,1.35-.83l3.39-.52c1.05-.16,2.02.49,2.27,1.51l1.88,7.4c.14.55.04,1.14-.27,1.62-.31.48-.81.8-1.38.89l-3.89.62c-.11.02-.22.03-.33.03Zm.55-2.13h0s0,0,0,0Zm-1.28-6.94l1.18,6.42,2.77-.44-1.61-6.34-2.34.36Z"/>
        <path class="cls-1" d="m358.23,125.33h-3.43c-1.05,0-1.91-.8-2.02-1.84l-.73-7.6c-.05-.57.13-1.14.52-1.56.38-.42.93-.67,1.5-.67h3.94s0-.01,0-.01c1.11,0,2,.87,2.03,1.97l.22,7.62c.02.55-.19,1.08-.58,1.47-.38.39-.91.61-1.45.61Zm0-2.58h0Zm-2.93,0h2.37s-.18-6.52-.18-6.52h-2.81s.62,6.52.62,6.52Z"/>
      </g>
    </g>
    <g>
      <path class="cls-4" d="m12.05,69.64c-.8,6.47-1.6,16.69-.16,23,.8,3.51,1.92,2.72,2.72-.08,1.92-7.11,4.63-20.04,9.26-30.75,5.83-13.57,13.41-20.6,30.26-20.76,2.32,0,3.51.24,4.79.4,3.28.32,3.28,5.03.4,5.83-10.46,2.95-17.81,11.34-19.09,15.49-.96,3.35,1.04,4.71,4.55,4.87,1.2.08,2.48-.08,3.75-.24-.08-2.79-.32-5.59.48-8.94.96-4.55,5.03-7.11,9.26-6.31,4.79,1.04,8.22,6.79,6.71,11.02-.96,2.72-3.75,6.47-9.98,8.7.48,13.26.64,14.53.4,17.25,10.86,6.23,16.85,12.46,19.88,16.69,2.4,3.27-2.56,6.87-4.87,3.59-2.56-3.51-7.43-8.78-16.21-14.13-2.32,5.91-7.67,8.62-13.42,8.07-13.34-1.2-12.7-17.57.72-18.29,2.64-.08,5.19.56,7.83,1.52,0-2.08-.4-11.58-.48-13.18-4.55.64-9.9.08-12.7-3.51-1.68-2.16-2.32-5.35-.88-8.86,2.08-5.51,7.83-10.46,12.94-13.5-10.78,1.44-14.85,6.23-19.57,16.37-4.15,8.94-6.71,20.44-8.7,28.75-.56,2.24-1.36,8.47-6.87,8.47-9.82-.08-8.22-22.44-7.03-32.18,1.44-11.82,3.35-16.77,5.11-20.84,1.52-3.67,7.27-1.28,5.51,2.32-2.87,6.15-3.75,12.54-4.63,19.25Zm29.55,20.84c-5.75,0-7.11,6.71-.32,7.19,3.51.32,6.55-1.36,7.67-5.27-2.16-.96-4.95-1.92-7.35-1.92Zm15.73-33.3c-1.52-.24-2.47.72-2.63,2.4-.24,1.76-.16,3.99,0,6.23,2.16-.96,5.83-2.87,5.75-5.27-.08-1.44-1.44-3.19-3.11-3.35Z"/>
      <path class="cls-4" d="m117.1,80.48c-4.63,3.35-10.3,5.91-16.05,7.51-4.23,1.12-6.15-5.35-2.08-6.39,5.27-1.52,10.22-3.43,13.9-6.39,12.54-9.5,10.54-22.44,2.72-28.11-3.83-2.95-9.5-4.39-14.53-4.47.96,1.04,1.6,2.63,1.76,4.39.4,2.95.08,6.15-.88,9.82-1.2,4.31-2.64,7.51-4.87,11.18-1.68,2.79-6.07,8.54-10.38,10.62-3.59,1.76-9.98,2.08-13.66-3.51-2.95-4.31-3.19-10.7-2.4-15.17.96-4.87,3.19-9.98,7.51-14.13,7.83-7.59,16.21-9.1,24.84-8.94,7.83.08,12.62,2.4,17.25,5.83,13.1,11.74,9.5,27.87-3.11,37.77Zm-20.2-32.58c-.08-1.44-.4-2.4-.88-3.11-.64-1.04-1.84-1.36-2.87-1.12-6.39,1.84-8.94,4.31-10.94,6.31-5.91,5.99-6.87,13.58-5.35,19.17,1.28,4.39,4.07,6.15,8.23,3.43,2.95-2,6.07-6.47,6.87-7.75,2.32-3.91,3.59-6.95,4.23-9.5.72-2.95.88-5.59.72-7.43Z"/>
      <path class="cls-4" d="m160.81,105.56c-5.19,7.59-13.73,6.23-18.21-.72-2.08-3.28,1.92-6.63,4.23-3.75,2,2.47,3.99,3.59,5.27,3.51,1.52-.16,2.64-1.2,3.67-2.56,2.72-3.83,4.15-9.66,5.03-14.69.4-2.79.72-7.83-.96-10.06-1.28-1.6-3.67-1.84-6.39-1.84-8.46,18.13-23.32,33.62-34.58,41.69-3.11,2.24-7.19-2.48-4.07-4.71,9.98-7.19,23.88-20.44,31.78-35.94-6.55,1.2-8.08,2.07-10.95,3.19-3.51,1.28-6.23-4.31-2.24-5.75,1.6-.64,6.56-2.47,15.9-3.66,2.47-7.11,3.35-11.98,4.23-17.73.56-4.23,6.71-2.8,6.31.8-.64,4.31-2.64,12.38-3.99,16.37,3.51.16,6.71,1.28,8.78,4.07,2.87,3.91,2.56,9.5,2,14.29-.72,3.19-2.48,12.46-5.83,17.49Zm24.12-8.86c-4.47,2.95-10.86,2.63-13.9,2.56-3.59-.08-3.59-5.43-.08-5.19,3.11.16,8.54.24,11.02-1.68,2.87-2.24,1.44-6.63-.4-9.66-1.76-2.96-4.55-5.83-8.07-7.91-3.51-2.08-.08-6.71,2.95-4.95,4.31,2.4,7.67,5.91,9.98,9.9,3.67,6.15,4.39,13.02-1.52,16.93Z"/>
      <path class="cls-4" d="m244.94,87.73c-9.66,11.42-27.87,16.05-40.65,16.69-4.31.16-4.95-6.39-.56-6.55,11.5-.56,27.95-4.63,36.18-14.37,6.79-7.91,7.67-20.44-1.04-26.83-3.83-2.87-9.5-4.39-14.53-4.47.96,1.04,1.6,2.63,1.76,4.39.4,2.96.16,6.15-.88,9.82-1.12,4.31-2.63,7.51-4.87,11.18-1.68,2.79-6.07,8.54-10.38,10.62-3.59,1.76-9.9,2.08-13.66-3.51-2.87-4.31-3.19-10.7-2.4-15.17.96-4.87,3.19-9.98,7.51-14.13,7.83-7.59,16.21-9.1,24.83-8.94,7.83.08,12.62,2.4,17.25,5.83,7.51,6.63,9.66,15.33,7.43,23.88-1.2,4.63-3.35,8.54-5.99,11.58Zm-25.63-33.38c-.64-1.04-1.84-1.44-2.87-1.12-6.39,1.76-8.94,4.31-10.94,6.31-5.91,5.99-6.87,13.57-5.35,19.16,1.28,4.39,4.07,6.15,8.23,3.43,2.95-2,6.15-6.47,6.87-7.75,2.4-3.91,3.59-6.95,4.23-9.5.72-2.95.88-5.59.72-7.43-.08-1.44-.4-2.4-.88-3.12Z"/>
      <path class="cls-4" d="m300.92,73.36c-4.07,1.04-6.23-4.71-1.52-5.91,24.51-5.51,28.75-13.41,29.07-18.29.24-3.27-1.28-5.43-4.87-6.39-7.43-2-17.09.56-24.36,3.43.08,4.15.08,2.87,0,5.75,0,6.23-2.24,11.1-8.39,11.34-1.68,0-3.67-.24-5.99-1.76-4.63-3.19-4.79-8.23-1.92-11.74,2.4-3.12,6.15-5.03,10.3-6.95,0-5.27,0-6.95.08-15.01-4.71.24-8.38-.64-12.22-2.64-3.51-1.84-1.04-7.51,2.56-5.43,2,1.2,5.43,2.4,9.66,2.32.08-4.31.08-6.79.32-8.31,1.12-8.07,8.54-11.9,15.81-5.19,4.79,4.39,4.47,9.58.96,13.02-1.68,1.68-3.99,2.87-6.31,3.83-2.16.96-3.35,1.2-4.87,1.6v13.34c7.83-2.95,18.29-5.51,26.03-3.35,11.02,3.11,10.86,12.54,7.75,18.77-3.99,7.83-14.69,13.89-32.1,17.57Zm-7.67-24.6c-3.99,2-5.03,3.03-6.07,4.15-1.28,1.44-1.12,3.27.56,4.31,1.68.96,3.59,1.2,4.71-.48.4-.64.72-1.6.8-2.8v-5.19Zm5.91-34.42c-.08,1.92,0,4.55,0,7.03,1.92-.56,3.51-1.12,5.43-2.08,3.51-1.92,4.31-4.31,1.52-7.19-3.75-3.67-6.71-2-6.95,2.24Zm38.33,17.33c-.48-2.08-1.12-3.75-2.4-4.87-2.56-2.32-9.98-3.03-19.57,4.31-2.63,2-6.47-2-3.35-4.39,7.11-5.51,14.85-9.18,23.32-6.63,3.35,1.04,6.95,3.83,8.23,10.3.72,4.07-5.35,5.27-6.23,1.28Z"/>
      <path class="cls-4" d="m374.23,92.04c-10.14,9.34-26.19,13.5-42.8,13.5-4.31,0-4.47-6.55-.24-6.63,16.13-.4,30.35-3.51,38.81-11.74,7.19-7.03,9.58-13.82,8.38-26.27-1.44-14.69-10.22-13.97-13.97-10.86,1.68,7.11,2.64,15.57.8,22.76-3.03,12.06-15.89,9.9-14.29-5.99.56-5.75,2.8-12.3,6.47-17.17-2-6.63-3.67-9.02-4.79-10.54-2.95-3.99,3.19-7.43,5.75-3.99,1.36,1.84,2.95,4.79,4.47,9.42,7.27-4.31,19.8-2.96,22.12,15.65,1.76,14.13-2.8,24.6-10.7,31.86Zm-15.09-35.22c-1.68,3.51-2.63,7.11-2.95,10.46-.72,8.7,3.27,10.86,3.75.16.16-3.51-.24-7.27-.8-10.62Z"/>
      <path class="cls-4" d="m214.61,32.69c11.53-3.65,24.92-6.18,36.67-1.94,4.83,1.74,9.52,5.05,10.68,10.33,1.25,5.71-.57,12.18-1.16,17.88-1,9.79-1.7,19.91.02,29.66,1.02,5.79,3.31,11.64,8.16,15.26,11.73,8.75,28.97.08,38.24-8.49,4.27-3.96,9.03-11.45,2.63-15.92-3.58-2.49-8.14-1.98-10.81,1.52-3.09,4.04-2.65,9.8-.53,14.17,3.93,8.11,11.07,15.27,18.96,19.46,12.18,6.46,26.22,6.91,39.71,6.96,3.98.02,3.99-6.17,0-6.18-10.7-.04-21.87-.14-31.98-4.02-7.53-2.89-13.75-7.83-18.29-14.47-2.08-3.04-4.65-6.46-3.74-10.37.33-1.41.97-2.75,2.52-2.34.88.23,1.17.96,1.18,1.02.16,1.75-2.25,4.13-3.56,5.39-2.48,2.39-5.37,4.34-8.38,6.01-8.63,4.82-21.18,8.11-26.17-2.74-2.62-5.71-2.78-12.54-2.75-18.69.03-5.05.38-10.1.87-15.13.53-5.42,1.82-10.98,1.58-16.44-.47-10.83-9.09-17.45-18.99-19.85-12.03-2.92-24.9-.71-36.51,2.96-3.78,1.2-2.17,7.17,1.64,5.96h0Z"/>
      <g>
        <path class="cls-4" d="m355.59,120.18c-1.78-.15-1.97-2.68-.22-3.05,5.97-1.27,14.11-3.19,21.15-5.46,15.05-4.87,22.77-13.47,25.38-16.92.57-.76,1.69-.8,2.34-.12l9.14,9.64c.71.75.52,1.98-.41,2.44-4.91,2.45-19.07,9.06-35.24,12.2-9,1.75-16.69,1.73-22.14,1.27Z"/>
        <path class="cls-4" d="m357.8,121.92c-1.76.3-2.58-2.1-.98-2.9,5.46-2.73,12.85-6.63,19.09-10.6,13.34-8.49,18.65-18.76,20.31-22.75.36-.88,1.43-1.2,2.24-.7l11.27,7.03c.88.55,1,1.78.21,2.47-4.13,3.61-16.18,13.56-31.05,20.66-8.27,3.95-15.71,5.87-21.11,6.8Z"/>
        <path class="cls-4" d="m356.21,114l3.39-.52c.38-.06.74.18.83.55l1.88,7.4c.11.42-.17.85-.6.92l-3.89.62c-.4.06-.77-.2-.85-.6l-1.38-7.5c-.08-.41.2-.8.62-.87Z"/>
        <path class="cls-4" d="m358.23,124.04h-3.43c-.38,0-.7-.3-.74-.68l-.73-7.6c-.04-.43.3-.81.74-.81h3.94c.4-.01.73.31.74.71l.22,7.62c.01.42-.32.76-.74.76Z"/>
      </g>
    </g>
  </g>
  <path class="cls-2" d="m356.21,114l3.39-.52c.38-.06.74.18.83.55l1.88,7.4c.11.42-.17.85-.6.92l-3.89.62c-.4.06-.77-.2-.85-.6l-1.38-7.5c-.08-.41.2-.8.62-.87Z"/>
  <path class="cls-2" d="m358.23,124.04h-3.43c-.38,0-.7-.3-.74-.68l-.73-7.6c-.04-.43.3-.81.74-.81h3.94c.4-.01.73.31.74.71l.22,7.62c.01.42-.32.76-.74.76Z"/>
</svg>