<?xml version="1.0" encoding="UTF-8"?>
<svg id="a" data-name="レイヤー 1" xmlns="http://www.w3.org/2000/svg" width="445" height="350" viewBox="0 0 445 350">
  <defs>
    <style>
      .b {
        fill: #f0f0f0;
      }

      .c {
        fill: #162438;
      }

      .d {
        fill: #61a9ff;
      }

      .e {
        fill: #223752;
      }

      .f {
        fill: #a8d3ff;
      }

      .g {
        fill: #8ecb3f;
      }

      .h {
        fill: #dfe7f0;
      }
    </style>
  </defs>
  <path class="c" d="m440.67,224.52h0s-15.55-219.31-15.55-219.31l-93.33,26.93-10.51-.27c-4.32-2.32-8.91-3.99-13.69-4.98-2.47-.51-4.98-.84-7.58-1-2.16-1.47-4.34-2.74-6.61-3.85-21.9-10.69-43.24-1.56-47.3.38l-29.97,14.33c-4.11.68-8.1,1.98-11.85,3.86-4.18-.19-10.69-.46-18.61-.64-5.67-3.17-11.97-4.97-18.33-5.23l-26.35-1.3-1.98-.05c-7.76,0-15.31,2.17-21.82,6.21-9.56-3.77-20.88-5.61-35.27-5.74h-1c-15.42,0-31.8,2.08-38.04,2.96-10.73,1.41-20.7,7.12-27.33,15.67-5.7,7.34-8.71,16.24-8.69,25.36v9.95c0,1.31.07,2.62.2,3.94l.89,9.98c-1.33,5.53-2.79,13.26-3.41,22.34v.14c-.16,2.46-.23,4.89-.23,7.24,0,.01,0,.03,0,.04,0,.02,0,.03,0,.05,0,.02,0,.03,0,.05,0,.02,0,.03,0,.05,0,.02,0,.03,0,.05,0,.02,0,.03,0,.05,0,.02,0,.03,0,.05,0,.02,0,.03,0,.05,0,.02,0,.03,0,.05,0,.02,0,.03,0,.05,0,.02,0,.03,0,.05,0,.02,0,.03,0,.05,0,.02,0,.03,0,.05,0,.02,0,.03,0,.05,0,.02,0,.03,0,.05,0,.02,0,.03,0,.05,0,.02,0,.03,0,.05,0,.02,0,.03,0,.05,0,.02,0,.03,0,.05,0,.02,0,.03,0,.05,0,.02,0,.03,0,.05,0,.02,0,.03,0,.05,0,.02,0,.03,0,.05,0,.02,0,.03,0,.05,0,.02,0,.03,0,.05,0,.02,0,.03,0,.05,0,.02,0,.03,0,.05,0,.02,0,.03,0,.05,0,.02,0,.03,0,.05,0,.02,0,.03,0,.05,0,.02,0,.03,0,.05,0,.02,0,.03,0,.05,0,.02,0,.03,0,.05,0,.02,0,.03,0,.05,0,.02,0,.03,0,.05,0,.02,0,.03,0,.05,0,.02,0,.03,0,.05,0,.02,0,.03,0,.05,0,.02,0,.03,0,.05,0,.02,0,.03,0,.05,0,.02,0,.03,0,.05,0,.02,0,.03,0,.05,0,.02,0,.03,0,.05,0,.02,0,.03,0,.05,0,.02,0,.03,0,.05,0,.02,0,.03,0,.05,0,.02,0,.03,0,.05,0,.02,0,.03,0,.05,0,.02,0,.03,0,.05,0,.02,0,.03,0,.05,0,.02,0,.03,0,.05,0,.02,0,.03,0,.05,0,.02,0,.03,0,.05,0,.02,0,.03,0,.05,0,.02,0,.03,0,.05,0,.02,0,.03,0,.05,0,.02,0,.03,0,.05,0,.02,0,.03,0,.05,0,.02,0,.03,0,.05,0,.02,0,.03,0,.05,0,.02,0,.03,0,.05,0,.02,0,.03,0,.05,0,.02,0,.03,0,.05,0,.02,0,.03,0,.05,0,.02,0,.03,0,.05,0,.02,0,.03,0,.05,0,.02,0,.03,0,.05,0,.02,0,.03,0,.05,0,.02,0,.03,0,.05,0,.02,0,.03,0,.05,0,.02,0,.03,0,.05,0,.02,0,.03,0,.05,0,.02,0,.03,0,.05,0,.02,0,.03,0,.05,0,.02,0,.03,0,.05,0,.02,0,.03,0,.05,0,.02,0,.03,0,.05,0,.02,0,.03,0,.05,0,.02,0,.03,0,.05,0,.02,0,.03,0,.05,0,.02,0,.03,0,.05,0,.02,0,.03,0,.05,0,.02,0,.03,0,.05,0,.02,0,.03,0,.05,0,.02,0,.03,0,.05,0,.02,0,.03,0,.05,0,.02,0,.03,0,.05,0,.02,0,.03,0,.05,0,.02,0,.03,0,.05,0,.02,0,.03,0,.05,0,.02,0,.03,0,.05,0,.02,0,.03,0,.05,0,.02,0,.03,0,.05,0,.02,0,.03,0,.05,0,.02,0,.03,0,.05,0,.02,0,.03,0,.05,0,.02,0,.03,0,.05,0,.02,0,.03,0,.05,0,.02,0,.03,0,.05,0,.02,0,.03,0,.05,0,.02,0,.03,0,.05,0,.02,0,.03,0,.05,0,.02,0,.03,0,.05,0,.02,0,.03,0,.05,0,.02,0,.03,0,.05,0,.02,0,.03,0,.05,0,.02,0,.03,0,.05,0,.02,0,.03,0,.05,0,.02,0,.03,0,.05,0,.02,0,.03,0,.05,0,.02,0,.03,0,.05,0,.02,0,.03,0,.05,0,.02,0,.03,0,.05,0,.02,0,.03,0,.05,0,.02,0,.03,0,.05,0,.02,0,.03,0,.05,0,.02,0,.03,0,.05,0,.02,0,.03,0,.05,0,.02,0,.03,0,.05,0,.02,0,.03,0,.05,0,.02,0,.03,0,.05,0,.02,0,.03,0,.05,0,.02,0,.03,0,.05,0,.02,0,.03,0,.05,0,.02,0,.03,0,.05,0,.02,0,.03,0,.05,0,.02,0,.03,0,.05,0,.02,0,.03,0,.05,0,.02,0,.03,0,.05,0,.02,0,.03,0,.05,0,.02,0,.03,0,.05,0,.02,0,.03,0,.05,0,.02,0,.03,0,.05,0,.02,0,.03,0,.05,0,.02,0,.03,0,.05,0,.02,0,.03,0,.05,0,.02,0,.03,0,.05,0,.02,0,.03,0,.05,0,.02,0,.03,0,.05,0,.02,0,.03,0,.05,0,.02,0,.03,0,.05,0,.02,0,.03,0,.05,0,.02,0,.03,0,.05,0,.02,0,.03,0,.05,0,.02,0,.03,0,.05,0,.02,0,.03,0,.05,0,.02,0,.03,0,.05,0,.02,0,.03,0,.05,0,.02,0,.03,0,.05,0,.02,0,.03,0,.05,0,.02,0,.03,0,.05,0,.02,0,.03,0,.05,0,.02,0,.03,0,.05,0,.02,0,.03,0,.05,0,.02,0,.03,0,.05,0,.02,0,.03,0,.05,0,.02,0,.03,0,.05,0,.02,0,.03,0,.05,0,.02,0,.03,0,.05,0,.02,0,.03,0,.05,0,.02,0,.03,0,.05,0,.02,0,.03,0,.05,0,.02,0,.03,0,.05,0,.02,0,.03,0,.05,0,.02,0,.03,0,.05,0,.02,0,.03,0,.05,0,.02,0,.03,0,.05,0,.02,0,.03,0,.05,0,.02,0,.03,0,.05,0,.02,0,.03,0,.05,0,.02,0,.03,0,.05,0,.02,0,.03,0,.05,0,.02,0,.03,0,.05,0,.02,0,.03,0,.05,0,.02,0,.03,0,.05,0,.02,0,.03,0,.05,0,.02,0,.03,0,.05,0,.02,0,.03,0,.05,0,.02,0,.03,0,.05,0,.02,0,.03,0,.05,0,.02,0,.03,0,.05,0,.02,0,.03,0,.05,0,.02,0,.03,0,.05,0,.02,0,.03,0,.05,0,.02,0,.03,0,.05,0,.02,0,.03,0,.05,0,.02,0,.03,0,.05,0,.02,0,.03,0,.05,0,.02,0,.03,0,.05,0,.02,0,.03,0,.05,0,.02,0,.03,0,.05,0,.02,0,.03,0,.05,0,.02,0,.03,0,.05,0,.02,0,.03,0,.05,0,.02,0,.03,0,.05,0,.02,0,.03,0,.05,0,.02,0,.03,0,.05,0,.02,0,.03,0,.05,0,.02,0,.03,0,.05,0,.02,0,.03,0,.05,0,.02,0,.03,0,.05,0,.02,0,.03,0,.05,0,.02,0,.03,0,.05,0,.02,0,.03,0,.05,0,.01,0,.03,0,.04-.02,7.7.64,14.53,1.18,18.79-.78,3.22-1.18,6.54-1.18,9.92h0s0,.04,0,.05h0s0,.04,0,.05h0s0,.04,0,.05h0s0,.04,0,.05h0s0,.04,0,.05h0s0,.04,0,.05h0s0,.04,0,.05h0s0,.04,0,.05h0s0,.04,0,.05h0s0,.04,0,.05h0s0,.04,0,.05h0s0,.04,0,.05h0s0,.04,0,.05h0s0,.04,0,.05h0s0,.04,0,.05h0s0,.04,0,.05h0s0,.04,0,.05h0s0,.04,0,.05h0s0,.04,0,.05h0s0,.04,0,.05h0s0,.04,0,.05h0s0,.04,0,.05h0s0,.04,0,.05h0s0,.04,0,.05h0s0,.04,0,.05h0s0,.04,0,.05h0s0,.04,0,.05h0s0,.04,0,.05h0s0,.04,0,.05h0s0,.04,0,.05h0s0,.04,0,.05h0s0,.04,0,.05h0s0,.04,0,.05h0s0,.04,0,.05h0s0,.04,0,.05h0s0,.04,0,.05h0s0,.04,0,.05h0s0,.04,0,.05h0s0,.04,0,.05h0s0,.04,0,.05h0s0,.04,0,.05h0s0,.04,0,.05h0s0,.04,0,.05h0s0,.04,0,.05h0s0,.04,0,.05h0s0,.04,0,.05h0s0,.04,0,.05h0s0,.04,0,.05h0s0,.04,0,.05h0s0,.04,0,.05h0s0,.04,0,.05h0s0,.04,0,.05h0s0,.04,0,.05h0s0,.04,0,.05h0s0,.04,0,.05h0s0,.04,0,.05h0s0,.04,0,.05h0s0,.04,0,.05h0s0,.04,0,.05h0s0,.04,0,.05h0s0,.04,0,.05h0s0,.04,0,.05h0s0,.04,0,.05h0s0,.04,0,.05h0s0,.04,0,.05h0s0,.04,0,.05h0s0,.04,0,.05h0s0,.04,0,.05h0s0,.04,0,.05h0s0,.04,0,.05h0s0,.04,0,.05h0s0,.04,0,.05h0s0,.04,0,.05h0s0,.04,0,.05h0s0,.04,0,.05h0s0,.04,0,.05h0s0,.04,0,.05h0s0,.04,0,.05h0s0,.04,0,.05h0s0,.04,0,.05h0s0,.04,0,.05h0s0,.04,0,.05h0s0,.04,0,.05h0s0,.04,0,.05h0s0,.04,0,.05h0s0,.04,0,.05h0s0,.04,0,.05h0s0,.04,0,.05h0s0,.04,0,.05h0s0,.04,0,.05h0s0,.04,0,.05h0s0,.04,0,.05h0s0,.04,0,.05h0s0,.04,0,.05h0s0,.04,0,.05h0s0,.04,0,.05h0s0,.04,0,.05h0s0,.04,0,.05h0s0,.04,0,.05h0s0,.04,0,.05h0s0,.04,0,.05h0s0,.04,0,.05h0s0,.04,0,.05h0s0,.04,0,.05h0s0,.04,0,.05h0s0,.04,0,.05h0s0,.04,0,.05h0s0,.04,0,.05h0s0,.04,0,.05h0s0,.04,0,.05h0s0,.04,0,.05h0s0,.04,0,.05h0s0,.04,0,.05h0s0,.04,0,.05h0s0,.04,0,.05h0s0,.04,0,.05h0s0,.04,0,.05h0s0,.04,0,.05h0s0,.04,0,.05h0s0,.04,0,.05h0s0,.04,0,.05h0s0,.04,0,.05h0s0,.04,0,.05h0s0,.04,0,.05h0s0,.04,0,.05h0s0,.04,0,.05h0s0,.04,0,.05h0s0,.04,0,.05h0s0,.04,0,.05h0s0,.04,0,.05h0s0,.04,0,.05h0s0,.04,0,.05h0s0,.04,0,.05h0s0,.04,0,.05h0s0,.04,0,.05h0s0,.04,0,.05h0s0,.04,0,.05h0s0,.04,0,.05h0s0,.04,0,.05h0s0,.04,0,.05h0s0,.04,0,.05h0s0,.04,0,.05h0s0,.04,0,.05h0s0,.04,0,.05h0s0,.04,0,.05h0s0,.04,0,.05h0s0,.04,0,.05h0s0,.04,0,.05h0s0,.04,0,.05h0s0,.04,0,.05h0s0,.04,0,.05h0s0,.04,0,.05h0s0,.04,0,.05h0s0,.04,0,.05h0s0,.04,0,.05h0s0,.04,0,.05h0s0,.04,0,.05h0s0,.04,0,.05h0s0,.04,0,.05h0s0,.04,0,.05h0s0,.04,0,.05h0s0,.04,0,.05h0s0,.04,0,.05h0s0,.04,0,.05h0s0,.04,0,.05h0s0,.04,0,.05h0s0,.04,0,.05h0s0,.04,0,.05h0s0,.04,0,.05h0s0,.04,0,.05h0s0,.04,0,.05h0s0,.04,0,.05h0s0,.04,0,.05h0s0,.04,0,.05h0s0,.04,0,.05h0s0,.04,0,.05h0s0,.04,0,.05h0s0,.04,0,.05h0s0,.04,0,.05h0s0,.04,0,.05h0s0,.04,0,.05h0s0,.04,0,.05h0s0,.04,0,.05h0s0,.04,0,.05h0s0,.04,0,.05h0s0,.04,0,.05h0s0,.04,0,.05h0s0,.04,0,.05h0s0,.04,0,.05h0s0,.04,0,.05h0s0,.04,0,.05h0s0,.04,0,.05h0s0,.04,0,.05h0s0,.04,0,.05h0s0,.04,0,.05h0s0,.04,0,.05h0s0,.04,0,.05h0s0,.04,0,.05h0s0,.04,0,.05h0s0,.04,0,.05h0s0,.04,0,.05h0s0,.04,0,.05h0s0,.04,0,.05h0s0,.04,0,.05h0s0,.04,0,.05h0s0,.04,0,.05l.86,14.91c.18,3.53.79,6.97,1.83,10.29-.17,1.91-.27,3.84-.27,5.77,0,0,0,.02,0,.03,0,0,0,.02,0,.02,0,0,0,.02,0,.03,0,0,0,.02,0,.02,0,0,0,.02,0,.03,0,0,0,.02,0,.02,0,0,0,.02,0,.03,0,0,0,.02,0,.02,0,0,0,.02,0,.03,0,0,0,.02,0,.02,0,0,0,.02,0,.03,0,0,0,.02,0,.02,0,0,0,.02,0,.03,0,0,0,.02,0,.02,0,0,0,.02,0,.03,0,0,0,.02,0,.02,0,0,0,.02,0,.03,0,0,0,.02,0,.02,0,0,0,.02,0,.03,0,0,0,.02,0,.02,0,0,0,.02,0,.03,0,0,0,.02,0,.02,0,0,0,.02,0,.03,0,0,0,.02,0,.02,0,0,0,.02,0,.03,0,0,0,.02,0,.02,0,0,0,.02,0,.03,0,0,0,.02,0,.02,0,0,0,.02,0,.03,0,0,0,.02,0,.02,0,0,0,.02,0,.03,0,0,0,.02,0,.02,0,0,0,.02,0,.03,0,0,0,.02,0,.02,0,0,0,.02,0,.03,0,0,0,.02,0,.02,0,0,0,.02,0,.03,0,0,0,.02,0,.02,0,0,0,.02,0,.03,0,0,0,.02,0,.02,0,0,0,.02,0,.03,0,0,0,.02,0,.02,0,0,0,.02,0,.03,0,0,0,.02,0,.02,0,0,0,.02,0,.03,0,0,0,.02,0,.02,0,0,0,.02,0,.03,0,0,0,.02,0,.02,0,0,0,.02,0,.03,0,0,0,.02,0,.02,0,0,0,.02,0,.03,0,0,0,.02,0,.02,0,0,0,.02,0,.03,0,0,0,.02,0,.02,0,0,0,.02,0,.03,0,0,0,.02,0,.02,0,0,0,.02,0,.03,0,0,0,.02,0,.02,0,0,0,.02,0,.03,0,0,0,.02,0,.02,0,0,0,.02,0,.03,0,0,0,.02,0,.02,0,0,0,.02,0,.03,0,0,0,.02,0,.02,0,0,0,.02,0,.03,0,0,0,.02,0,.02,0,0,0,.02,0,.03,0,0,0,.02,0,.02,0,0,0,.02,0,.03,0,0,0,.02,0,.02,0,0,0,.02,0,.03,0,0,0,.02,0,.02,0,0,0,.02,0,.03,0,0,0,.02,0,.02,0,0,0,.02,0,.03,0,0,0,.02,0,.02,0,0,0,.02,0,.03,0,0,0,.02,0,.02,0,0,0,.02,0,.03,0,0,0,.02,0,.02,0,0,0,.02,0,.03,0,0,0,.02,0,.02,0,0,0,.02,0,.03,0,0,0,.02,0,.02,0,0,0,.02,0,.03,0,0,0,.02,0,.02,0,0,0,.02,0,.03,0,0,0,.02,0,.02,0,0,0,.02,0,.03,0,0,0,.02,0,.02,0,0,0,.02,0,.03,0,0,0,.02,0,.02,0,0,0,.02,0,.03,0,0,0,.02,0,.02,0,0,0,.02,0,.03,0,0,0,.02,0,.02,0,0,0,.02,0,.03,0,0,0,.02,0,.02,0,0,0,.02,0,.03,0,0,0,.02,0,.02,0,0,0,.02,0,.03,0,0,0,.02,0,.02,0,0,0,.02,0,.03,0,0,0,.02,0,.02,0,0,0,.02,0,.03,0,0,0,.02,0,.02,0,0,0,.02,0,.03,0,0,0,.02,0,.02,0,0,0,.02,0,.03,0,0,0,.02,0,.02,0,0,0,.02,0,.03,0,0,0,.02,0,.02,0,0,0,.02,0,.03,0,0,0,.02,0,.02,0,0,0,.02,0,.03,0,0,0,.02,0,.02,0,0,0,.02,0,.03,0,0,0,.02,0,.02,0,0,0,.02,0,.03,0,0,0,.02,0,.02,0,0,0,.02,0,.03,0,0,0,.02,0,.02,0,0,0,.02,0,.03,0,0,0,.02,0,.02,0,0,0,.02,0,.03,0,0,0,.02,0,.02,0,0,0,.02,0,.03,0,0,0,.02,0,.02,0,0,0,.02,0,.03,0,0,0,.02,0,.02,0,0,0,.02,0,.03,0,0,0,.02,0,.02,0,0,0,.02,0,.03,0,0,0,.02,0,.02,0,0,0,.02,0,.03,0,0,0,.02,0,.02,0,0,0,.02,0,.03,0,0,0,.02,0,.02,0,0,0,.02,0,.03,0,0,0,.02,0,.02,0,0,0,.02,0,.03,0,0,0,.02,0,.02,0,0,0,.02,0,.03,0,0,0,.02,0,.02,0,0,0,.02,0,.03,0,0,0,.02,0,.02,0,0,0,.02,0,.03,0,0,0,.02,0,.02,0,0,0,.02,0,.03,0,0,0,.02,0,.02,0,0,0,.02,0,.03,0,0,0,.02,0,.02,0,0,0,.02,0,.03,0,0,0,.02,0,.02,0,0,0,.02,0,.03,0,0,0,.02,0,.02,0,0,0,.02,0,.03,0,0,0,.02,0,.02,0,0,0,.02,0,.03,0,0,0,.02,0,.02,0,0,0,.02,0,.03,0,0,0,.02,0,.02,0,0,0,.02,0,.03,0,0,0,.02,0,.02,0,0,0,.02,0,.03,0,0,0,.02,0,.02,0,0,0,.02,0,.03,0,0,0,.02,0,.02,0,0,0,.02,0,.03,0,0,0,.02,0,.02,0,0,0,.02,0,.03,0,0,0,.02,0,.02,0,0,0,.02,0,.03,0,0,0,.02,0,.02,0,0,0,.02,0,.03,0,0,0,.02,0,.02,0,0,0,.02,0,.03,0,0,0,.02,0,.02,0,0,0,.02,0,.03,0,0,0,.02,0,.02,0,0,0,.02,0,.03,0,0,0,.02,0,.02,0,0,0,.02,0,.03,0,0,0,.02,0,.02,0,0,0,.02,0,.03,0,0,0,.02,0,.02,0,0,0,.02,0,.03,0,0,0,.02,0,.02,0,0,0,.02,0,.03,0,0,0,.02,0,.02,0,0,0,.02,0,.03,0,0,0,.02,0,.02,0,0,0,.02,0,.03,0,0,0,.02,0,.02,0,0,0,.02,0,.03,0,0,0,.02,0,.02,0,0,0,.02,0,.03,0,0,0,.02,0,.02,0,0,0,.02,0,.03,0,0,0,.02,0,.02,0,0,0,.02,0,.03,0,0,0,.02,0,.02,0,0,0,.02,0,.03,0,0,0,.02,0,.02,0,0,0,.02,0,.03,0,0,0,.02,0,.02,0,0,0,.02,0,.03,0,0,0,.02,0,.02,0,0,0,.02,0,.03,0,0,0,.02,0,.02,0,0,0,.02,0,.03,0,0,0,.02,0,.02,0,0,0,.02,0,.03,0,0,0,.02,0,.02,0,0,0,.02,0,.03,0,0,0,.02,0,.02,0,0,0,.02,0,.03,0,0,0,.02,0,.02,0,0,0,.02,0,.03,0,0,0,.02,0,.02,0,0,0,.02,0,.03,0,0,0,.02,0,.02,0,0,0,.02,0,.03,0,0,0,.02,0,.02,0,0,0,.02,0,.03,0,0,0,.02,0,.02,0,0,0,.02,0,.03,0,0,0,.02,0,.02,0,0,0,.02,0,.03,0,0,0,.02,0,.02,0,0,0,.02,0,.03,0,0,0,.02,0,.02,0,0,0,.02,0,.03,0,0,0,.02,0,.02,0,0,0,.02,0,.03,0,0,0,.02,0,.02,0,0,0,.02,0,.03,0,0,0,.02,0,.02,0,0,0,.02,0,.03,0,0,0,.02,0,.02,0,0,0,.02,0,.03,0,0,0,.02,0,.02,0,0,0,.02,0,.03,0,0,0,.02,0,.02,0,0,0,.02,0,.03,0,0,0,.02,0,.02,0,0,0,.02,0,.03,0,0,0,.02,0,.02,0,0,0,.02,0,.03,0,0,0,.02,0,.02,0,0,0,.02,0,.03,0,0,0,.02,0,.02,0,0,0,.02,0,.03,0,0,0,.02,0,.02,0,0,0,.02,0,.03,0,0,0,.02,0,.02,0,0,0,.02,0,.03,0,0,0,.02,0,.02,0,0,0,.02,0,.03,0,0,0,.02,0,.02,0,0,0,.02,0,.03,0,0,0,.02,0,.02,0,0,0,.02,0,.03,0,0,0,.02,0,.02,0,0,0,.02,0,.03,0,0,0,.02,0,.02,0,0,0,.02,0,.03,0,0,0,.02,0,.02,0,0,0,.02,0,.03,0,0,0,.02,0,.02,0,0,0,.02,0,.03,0,0,0,.02,0,.02,0,0,0,.02,0,.03,0,0,0,.02,0,.02,0,0,0,.02,0,.03,0,0,0,.02,0,.02,0,0,0,.02,0,.03,0,0,0,.02,0,.02,0,0,0,.02,0,.03,0,0,0,.02,0,.02,0,0,0,.02,0,.03,0,0,0,.02,0,.02,0,0,0,.02,0,.03,0,0,0,.02,0,.02,0,0,0,.02,0,.03,0,0,0,.02,0,.02,0,0,0,.02,0,.03,0,0,0,.02,0,.02,0,0,0,.02,0,.03,0,0,0,.02,0,.02,0,0,0,.02,0,.03,0,0,0,.02,0,.02,0,0,0,.02,0,.03,0,0,0,.02,0,.02,0,0,0,.02,0,.03,0,0,0,.02,0,.02,0,0,0,.02,0,.03,0,0,0,.02,0,.02,0,0,0,.02,0,.03,0,0,0,.02,0,.02,0,0,0,.02,0,.03,0,0,0,.02,0,.02,0,0,0,.02,0,.03,0,0,0,.02,0,.02,0,0,0,.02,0,.03,0,0,0,.02,0,.02,0,0,0,.02,0,.03,0,0,0,.02,0,.02,0,0,0,.02,0,.03,0,0,0,.02,0,.02,0,0,0,.02,0,.03,0,0,0,.02,0,.02,0,0,0,.02,0,.03,0,0,0,.02,0,.02,0,0,0,.02,0,.03,0,0,0,.02,0,.02,0,0,0,.02,0,.03,0,0,0,.02,0,.02,0,0,0,.02,0,.03,0,0,0,.02,0,.02,0,0,0,.02,0,.03,0,0,0,.02,0,.02,0,0,0,.02,0,.03,0,0,0,.02,0,.02,0,0,0,.02,0,.03,0,0,0,.02,0,.02,0,0,0,.02,0,.03,0,0,0,.02,0,.02,0,0,0,.02,0,.03,0,0,0,.02,0,.02,0,0,0,.02,0,.03,0,0,0,.02,0,.02,0,0,0,.02,0,.03,0,0,0,.02,0,.02,0,0,0,.02,0,.03,0,0,0,.02,0,.02,0,0,0,.02,0,.03,0,0,0,.02,0,.02,0,0,0,.02,0,.03,0,0,0,.02,0,.02,0,0,0,.02,0,.03,0,0,0,.02,0,.02,0,0,0,.02,0,.03,0,0,0,.02,0,.02,0,0,0,.02,0,.03,0,0,0,.02,0,.02,0,0,0,.02,0,.03,0,0,0,.02,0,.02,0,0,0,.02,0,.03,0,0,0,.02,0,.02,0,0,0,.02,0,.03,0,0,0,.02,0,.02,0,0,0,.02,0,.03,0,0,0,.02,0,.02,0,0,0,.02,0,.03,0,0,0,.02,0,.02,0,0,0,.02,0,.03,0,0,0,.02,0,.02,0,0,0,.02,0,.03,0,0,0,.02,0,.02,0,0,0,.02,0,.03,0,0,0,.02,0,.02,0,0,0,.02,0,.03,0,0,0,.02,0,.02,0,0,0,.02,0,.03,0,0,0,.02,0,.02,0,0,0,.02,0,.03,0,0,0,.02,0,.02,0,0,0,.02,0,.03,0,0,0,.02,0,.02,0,0,0,.02,0,.03,0,0,0,.02,0,.02,0,0,0,.02,0,.03,0,0,0,.02,0,.02,0,0,0,.02,0,.03,0,0,0,.02,0,.02,0,0,0,.02,0,.03,0,0,0,.02,0,.02,0,0,0,.02,0,.03,0,0,0,.02,0,.02,0,0,0,.02,0,.03,0,0,0,.02,0,.02,0,0,0,.02,0,.03,0,0,0,.02,0,.02,0,0,0,.02,0,.03,0,0,0,.02,0,.02,0,0,0,.02,0,.03,0,0,0,.02,0,.02,0,0,0,.02,0,.03,0,0,0,.02,0,.02,0,0,0,.02,0,.03,0,0,0,.02,0,.02,0,0,0,.02,0,.03,0,0,0,.02,0,.02,0,0,0,.02,0,.03,0,0,0,.02,0,.02,0,0,0,.02,0,.03,0,0,0,.02,0,.02,0,0,0,.02,0,.03,0,0,0,.02,0,.02,0,0,0,.02,0,.03,0,0,0,.02,0,.02,0,0,0,.02,0,.03,0,0,0,.02,0,.02,0,0,0,.02,0,.03,0,0,0,.02,0,.02,0,0,0,.02,0,.03,0,0,0,.02,0,.02,0,0,0,.02,0,.03,0,0,0,.02,0,.02,0,0,0,.02,0,.03,0,0,0,.02,0,.02,0,7.75,1.11,15.11,3.28,22.02-5.16,10.66-5.71,21.46-5.66,29.47,0,.02,0,.03,0,.05,0,.02,0,.03,0,.05,0,.02,0,.03,0,.05s0,.03,0,.05c0,.02,0,.03,0,.05,0,.02,0,.03,0,.05s0,.03,0,.05c0,.02,0,.03,0,.05s0,.03,0,.05c0,.02,0,.03,0,.05,0,.02,0,.03,0,.05s0,.03,0,.05c0,.02,0,.03,0,.05,0,.02,0,.03,0,.05s0,.03,0,.05c0,.02,0,.03,0,.05,0,.02,0,.03,0,.05s0,.03,0,.05c0,.02,0,.03,0,.05,0,.02,0,.03,0,.05s0,.03,0,.05c0,.02,0,.03,0,.05,0,.02,0,.03,0,.05s0,.03,0,.05c0,.02,0,.03,0,.05,0,.02,0,.03,0,.05s0,.03,0,.05c0,.02,0,.03,0,.05,0,.02,0,.03,0,.05s0,.03,0,.05c0,.02,0,.03,0,.05,0,.02,0,.03,0,.05s0,.03,0,.05c0,.02,0,.03,0,.05,0,.02,0,.03,0,.05s0,.03,0,.05c0,.02,0,.03,0,.05,0,.02,0,.03,0,.05s0,.03,0,.05c0,.02,0,.03,0,.05,0,.02,0,.03,0,.05s0,.03,0,.05c0,.02,0,.03,0,.05,0,.02,0,.03,0,.05s0,.03,0,.05c0,.02,0,.03,0,.05,0,.02,0,.03,0,.05s0,.03,0,.05c0,.02,0,.03,0,.05,0,.02,0,.03,0,.05s0,.03,0,.05c0,.02,0,.03,0,.05,0,.02,0,.03,0,.05s0,.03,0,.05c0,.02,0,.03,0,.05,0,.02,0,.03,0,.05s0,.03,0,.05c0,.02,0,.03,0,.05,0,.02,0,.03,0,.05s0,.03,0,.05c0,.02,0,.03,0,.05s0,.03,0,.05c0,.02,0,.03,0,.05,0,.02,0,.03,0,.05s0,.03,0,.05c0,.02,0,.03,0,.05,0,.02,0,.03,0,.05s0,.03,0,.05c0,.02,0,.03,0,.05,0,.02,0,.03,0,.05s0,.03,0,.05c0,.02,0,.03,0,.05,0,.02,0,.03,0,.05s0,.03,0,.05c0,.02,0,.03,0,.05,0,.02,0,.03,0,.05s0,.03,0,.05c0,.02,0,.03,0,.05,0,.02,0,.03,0,.05s0,.03,0,.05c0,.02,0,.03,0,.05,0,.02,0,.03,0,.05s0,.03,0,.05c0,.02,0,.03,0,.05,0,.02,0,.03,0,.05s0,.03,0,.05c0,.02,0,.03,0,.05,0,.02,0,.03,0,.05s0,.03,0,.05c0,.02,0,.03,0,.05,0,.02,0,.03,0,.05s0,.03,0,.05c0,.02,0,.03,0,.05,0,.02,0,.03,0,.05s0,.03,0,.05c0,.02,0,.03,0,.05,0,.02,0,.03,0,.05s0,.03,0,.05c0,.02,0,.03,0,.05,0,.02,0,.03,0,.05s0,.03,0,.05c0,.02,0,.03,0,.05,0,.02,0,.03,0,.05s0,.03,0,.05c0,.02,0,.03,0,.05,0,.02,0,.03,0,.05s0,.03,0,.05c0,.02,0,.03,0,.05,0,.02,0,.03,0,.05s0,.03,0,.05c0,.02,0,.03,0,.05s0,.03,0,.05c0,.02,0,.03,0,.05,0,.02,0,.03,0,.05s0,.03,0,.05c0,.02,0,.03,0,.05,0,.02,0,.03,0,.05s0,.03,0,.05c0,.02,0,.03,0,.05,0,.02,0,.03,0,.05s0,.03,0,.05c0,.02,0,.03,0,.05,0,.02,0,.03,0,.05s0,.03,0,.05c0,.02,0,.03,0,.05,0,.02,0,.03,0,.05s0,.03,0,.05c0,.02,0,.03,0,.05,0,.02,0,.03,0,.05s0,.03,0,.05c0,.02,0,.03,0,.05,0,.02,0,.03,0,.05s0,.03,0,.05c0,.02,0,.03,0,.05,0,.02,0,.03,0,.05s0,.03,0,.05c0,.02,0,.03,0,.05,0,.02,0,.03,0,.05s0,.03,0,.05c0,.02,0,.03,0,.05,0,.02,0,.03,0,.05s0,.03,0,.05c0,.02,0,.03,0,.05,0,.02,0,.03,0,.05s0,.03,0,.05c0,.02,0,.03,0,.05,0,.02,0,.03,0,.05s0,.03,0,.05c0,.02,0,.03,0,.05,0,.02,0,.03,0,.05s0,.03,0,.05c0,.02,0,.03,0,.05,0,.02,0,.03,0,.05s0,.03,0,.05c0,.02,0,.03,0,.05,0,.02,0,.03,0,.05s0,.03,0,.05c0,.02,0,.03,0,.05,0,.02,0,.03,0,.05s0,.03,0,.05c0,.02,0,.03,0,.05,0,.02,0,.03,0,.05s0,.03,0,.05c0,.02,0,.03,0,.05s0,.03,0,.05c0,.02,0,.03,0,.05,0,.02,0,.03,0,.05s0,.03,0,.05c0,.02,0,.03,0,.05,0,.02,0,.03,0,.05s0,.03,0,.05c0,.02,0,.03,0,.05,0,.02,0,.03,0,.05s0,.03,0,.05c0,.02,0,.03,0,.05,0,.02,0,.03,0,.05s0,.03,0,.05c0,.02,0,.03,0,.05,0,.02,0,.03,0,.05s0,.03,0,.05c0,.02,0,.03,0,.05,0,.02,0,.03,0,.05s0,.03,0,.05c0,.02,0,.03,0,.05,0,.02,0,.03,0,.05s0,.03,0,.05c0,.02,0,.03,0,.05,0,.02,0,.03,0,.05s0,.03,0,.05c0,.02,0,.03,0,.05,0,.02,0,.03,0,.05s0,.03,0,.05c0,.02,0,.03,0,.05,0,.02,0,.03,0,.05s0,.03,0,.05c0,.02,0,.03,0,.05,0,.02,0,.03,0,.05s0,.03,0,.05c0,.02,0,.03,0,.05,0,.02,0,.03,0,.05s0,.03,0,.05c0,.02,0,.03,0,.05,0,.02,0,.03,0,.05s0,.03,0,.05c0,.02,0,.03,0,.05,0,1.31.03,2.54.05,3.69v.26c.09,3.46.32,9.57.92,19.04v.11c1.13,21.63,18.98,38.57,40.69,38.57h19.5c5.37,0,10.66-1.06,15.57-3.09,6.17,2.34,12.74,3.53,19.58,3.53,5.09,0,10.06-.67,14.81-1.98,3.71,1.1,7.54,1.65,11.43,1.65h15.52c1.85,0,3.72-.13,5.56-.38,1.84.26,3.69.38,5.52.38h6.05c1.21,0,2.44-.06,3.66-.16,1.21.11,2.43.16,3.64.16h13.71c.95,0,1.82-.05,2.53-.1h.19c.74-.04,3.31.02,4.29.04,1.17.03,2.25.05,3.07.06,1.91,0,6.67,0,8.97,0,4.22.51,8.45.35,12.62-.47,2.01.31,4.05.46,6.07.46h6.05c1.21,0,2.44-.06,3.66-.16,1.21.11,2.43.16,3.64.16h13.71c3.57,0,7.1-.47,10.54-1.39,1.97.38,3.96.62,5.92.7l21.69,1.11c1.07.09,2.15.13,3.21.13,3.48,0,6.92-.45,10.25-1.32,3.05.72,6.16,1.09,9.29,1.09h15.52c3.36,0,6.71-.42,9.98-1.26,6.08,1.31,11.53,1.48,15.33,1.48h1.02c3.83-.06,7.31-.27,10.58-.67,2.05.32,4.12.48,6.18.48h14.38c10.73,0,20.86-4.17,28.59-11.8l.15-.15c.58-.58,1.14-1.18,1.68-1.79.25-.16.5-.33.75-.5,14.39-9.85,22.31-25.47,22.31-44v-.03s0-.01,0-.02v-.03s0-.01,0-.02v-.03s0-.01,0-.02v-.03s0-.01,0-.02v-.03s0-.01,0-.02v-.03s0-.01,0-.02v-.03s0-.01,0-.02v-.03s0-.01,0-.02v-.03s0-.01,0-.02v-.03s0-.01,0-.02v-.03s0-.01,0-.02v-.03s0-.01,0-.02v-.03s0-.01,0-.02v-.03s0-.01,0-.02v-.03s0-.01,0-.02v-.03s0-.01,0-.02v-.03s0-.01,0-.02v-.03s0-.01,0-.02v-.03s0-.01,0-.02v-.03s0-.01,0-.02v-.03s0-.01,0-.02v-.03s0-.01,0-.02v-.03s0-.01,0-.02v-.03s0-.01,0-.02v-.03s0-.01,0-.02v-.03s0-.01,0-.02v-.03s0-.01,0-.02v-.03s0-.01,0-.02v-.03s0-.01,0-.02v-.03s0-.01,0-.02v-.03s0-.01,0-.02v-.03s0-.01,0-.02v-.03s0-.01,0-.02v-.03s0-.01,0-.02v-.03s0-.01,0-.02v-.03s0-.01,0-.02v-.03s0-.01,0-.02v-.03s0-.01,0-.02v-.03s0-.01,0-.02v-.03s0-.01,0-.02v-.03s0-.01,0-.02v-.03s0-.01,0-.02v-.03s0-.01,0-.02v-.03s0-.01,0-.02v-.03s0-.01,0-.02v-.03s0-.01,0-.02v-.03s0-.01,0-.02v-.03s0-.01,0-.02v-.03s0-.01,0-.02v-.03s0-.01,0-.02v-.03s0-.01,0-.02v-.03s0-.01,0-.02v-.03s0-.01,0-.02v-.03s0-.01,0-.02v-.03s0-.01,0-.02v-.03s0-.01,0-.02v-.03s0-.01,0-.02v-.03s0-.01,0-.02v-.03s0-.01,0-.02v-.03s0-.01,0-.02v-.03s0-.01,0-.02v-.03s0-.01,0-.02v-.03s0-.01,0-.02v-.03s0-.01,0-.02v-.03s0-.01,0-.02v-.03s0-.01,0-.02v-.03s0-.01,0-.02v-.03s0-.01,0-.02v-.03s0-.01,0-.02v-.03s0-.01,0-.02v-.03s0-.01,0-.02v-.03s0-.01,0-.02v-.03s0-.01,0-.02v-.03s0-.01,0-.02v-.03s0-.01,0-.02v-.03s0-.01,0-.02v-.03s0-.01,0-.02v-.03s0-.01,0-.02v-.03s0-.01,0-.02v-.03s0-.01,0-.02v-.03s0-.01,0-.02v-.03s0-.01,0-.02v-.03s0-.01,0-.02v-.03s0-.01,0-.02v-.03s0-.01,0-.02v-.03s0-.01,0-.02v-.03s0-.01,0-.02v-.03s0-.01,0-.02v-.03s0-.01,0-.02v-.03s0-.01,0-.02v-.03s0-.01,0-.02v-.03s0-.01,0-.02v-.03s0-.01,0-.02v-.03s0-.01,0-.02v-.03s0-.01,0-.02v-.03s0-.01,0-.02v-.03s0-.01,0-.02v-.03s0-.01,0-.02v-.03s0-.01,0-.02v-.03s0-.01,0-.02v-.03s0-.01,0-.02v-.03s0-.01,0-.02v-.03s0-.01,0-.02v-.03s0-.01,0-.02v-.03s0-.01,0-.02v-.03s0-.01,0-.02v-.03s0-.01,0-.02v-.03s0-.01,0-.02v-.03s0-.01,0-.02v-.03s0-.01,0-.02v-.03s0-.01,0-.02v-.03s0-.01,0-.02v-.03s0-.01,0-.02v-.03s0-.01,0-.02v-.03s0-.01,0-.02v-.03s0-.01,0-.02v-.03s0-.01,0-.02v-.03s0-.01,0-.02v-.03s0-.01,0-.02v-.03s0-.01,0-.02v-.03s0-.01,0-.02v-.03s0-.01,0-.02v-.03s0-.01,0-.02v-.03s0-.01,0-.02v-.03s0-.01,0-.02v-.03s0-.01,0-.02v-.03s0-.01,0-.02v-.03s0-.01,0-.02v-.03s0-.01,0-.02v-.03s0-.01,0-.02v-.03s0-.01,0-.02v-.03s0-.01,0-.02v-.03s0-.01,0-.02v-.03s0-.01,0-.02v-.03s0-.01,0-.02v-.03s0-.01,0-.02v-.03s0-.01,0-.02v-.03s0-.01,0-.02v-.03s0-.01,0-.02v-.03s0-.01,0-.02v-.03s0-.01,0-.02v-.03s0-.01,0-.02v-.03s0-.01,0-.02v-.03s0-.01,0-.02v-.03s0-.01,0-.02v-.03s0-.01,0-.02v-.03s0-.01,0-.02v-.03s0-.01,0-.02v-.03s0-.01,0-.02v-.03s0-.01,0-.02v-.03s0-.01,0-.02v-.03s0-.01,0-.02v-.03s0-.01,0-.02v-.03s0-.01,0-.02v-.03s0-.01,0-.02v-.03s0-.01,0-.02v-.03s0-.01,0-.02v-.03s0-.01,0-.02v-.03s0-.01,0-.02v-.03s0-.01,0-.02v-.03s0-.01,0-.02v-.03s0-.01,0-.02v-.03s0-.01,0-.02v-.03s0-.01,0-.02v-.03s0-.01,0-.02v-.03s0-.01,0-.02v-.03s0-.01,0-.02v-.03s0-.01,0-.02v-.03s0-.01,0-.02v-.03s0-.01,0-.02v-.03s0-.01,0-.02v-.03s0-.01,0-.02v-.03s0-.01,0-.02v-.03s0-.01,0-.02v-.03s0-.01,0-.02v-.03s0-.01,0-.02v-.03s0-.01,0-.02v-.03s0-.01,0-.02v-.03s0-.01,0-.02v-.03s0-.01,0-.02v-.03s0-.01,0-.02v-.03s0-.01,0-.02v-.03s0-.01,0-.02v-.03s0-.01,0-.02v-.03s0-.01,0-.02v-.03s0-.01,0-.02v-.03s0-.01,0-.02v-.03s0-.01,0-.02v-.03s0-.01,0-.02v-.03s0-.01,0-.02v-.03s0-.01,0-.02v-.03s0-.01,0-.02v-.03s0-.01,0-.02v-.03s0-.01,0-.02v-.03s0-.01,0-.02v-.03s0-.01,0-.02v-.03s0-.01,0-.02v-.03s0-.01,0-.02v-.03s0-.01,0-.02v-.03s0-.01,0-.02v-.03s0-.01,0-.02v-.03s0-.01,0-.02v-.03s0-.01,0-.02v-.03s0-.01,0-.02v-.03s0-.01,0-.02v-.03s0-.01,0-.02l-.03-2-.02-.71c-.44-8.91-2.95-17.25-7.27-24.5l1.59-11.13h0s0-.05,0-.05h0s0-.05,0-.05h0s0-.05,0-.05h0s0-.05,0-.05h0s0-.05,0-.05h0s0-.05,0-.05h0s0-.05,0-.05h0s0-.05,0-.05h0s0-.05,0-.05h0s0-.05,0-.05h0s0-.05,0-.05h0s0-.05,0-.05h0s0-.05,0-.05h0s0-.05,0-.05h0s0-.05,0-.05h0s0-.05,0-.05h0s0-.05,0-.05h0s0-.05,0-.05h0s0-.05,0-.05h0s0-.05,0-.05h0s0-.05,0-.05h0s0-.05,0-.05h0s0-.05,0-.05h0s0-.05,0-.05h0s0-.05,0-.05h0s0-.05,0-.05h0s0-.05,0-.05h0s0-.05,0-.05h0s0-.05,0-.05h0s0-.05,0-.05h0s0-.05,0-.05h0s0-.05,0-.05h0s0-.05,0-.05h0s0-.05,0-.05h0s0-.05,0-.05h0s0-.05,0-.05h0s0-.05,0-.05h0s0-.05,0-.05h0s0-.05,0-.05h0s0-.05,0-.05h0s0-.05,0-.05h0s0-.05,0-.05h0s0-.05,0-.05h0s0-.05,0-.05h0s0-.05,0-.05h0s0-.05,0-.05h0s0-.05,0-.05h0s0-.05,0-.05h0s0-.05,0-.05h0s0-.05,0-.05h0s0-.05,0-.05h0s0-.05,0-.05h0s0-.05,0-.05h0s0-.05,0-.05h0s0-.05,0-.05h0s0-.05,0-.05h0s0-.05,0-.05h0s0-.05,0-.05h0s0-.05,0-.05h0s0-.05,0-.05h0s0-.05,0-.05h0s0-.05,0-.05h0s0-.05,0-.05h0s0-.05,0-.05h0s0-.05,0-.05h0s0-.05,0-.05h0s0-.05,0-.05h0s0-.05,0-.05h0s0-.05,0-.05h0s0-.05,0-.05h0s0-.05,0-.05h0s0-.05,0-.05h0s0-.05,0-.05h0s0-.05,0-.05h0s0-.05,0-.05h0s0-.05,0-.05h0s0-.05,0-.05h0s0-.05,0-.05h0s0-.05,0-.05h0s0-.05,0-.05h0s0-.05,0-.05h0s0-.05,0-.05h0s0-.05,0-.05h0s0-.05,0-.05h0s0-.05,0-.05h0s0-.05,0-.05h0s0-.05,0-.05h0s0-.05,0-.05h0s0-.05,0-.05h0s0-.05,0-.05h0s0-.05,0-.05h0s0-.05,0-.05h0s0-.05,0-.05h0s0-.05,0-.05h0s0-.05,0-.05h0s0-.05,0-.05h0s0-.05,0-.05h0s0-.05,0-.05h0s0-.05,0-.05h0s0-.05,0-.05h0s0-.05,0-.05h0s0-.05,0-.05h0s0-.05,0-.05h0s0-.05,0-.05h0s0-.05,0-.05h0s0-.05,0-.05h0s0-.05,0-.05h0s0-.05,0-.05h0s0-.05,0-.05h0s0-.05,0-.05h0s0-.05,0-.05h0s0-.05,0-.05h0s0-.05,0-.05h0s0-.05,0-.05h0s0-.05,0-.05h0s0-.05,0-.05h0s0-.05,0-.05h0s0-.05,0-.05h0s0-.05,0-.05h0s0-.05,0-.05h0s0-.05,0-.05h0s0-.05,0-.05h0s0-.05,0-.05h0s0-.05,0-.05h0s0-.05,0-.05h0s0-.05,0-.05h0s0-.05,0-.05h0s0-.05,0-.05h0s0-.05,0-.05h0s0-.05,0-.05h0s0-.05,0-.05h0s0-.05,0-.05h0s0-.05,0-.05h0s0-.05,0-.05h0s0-.05,0-.05h0s0-.05,0-.05h0s0-.05,0-.05h0s0-.05,0-.05h0s0-.05,0-.05h0s0-.05,0-.05h0s0-.05,0-.05h0s0-.05,0-.05h0s0-.05,0-.05h0s0-.05,0-.05h0s0-.05,0-.05h0s0-.05,0-.05h0s0-.05,0-.05h0s0-.05,0-.05h0s0-.05,0-.05h0s0-.05,0-.05h0s0-.05,0-.05h0s0-.05,0-.05h0s0-.05,0-.05h0s0-.05,0-.05h0s0-.05,0-.05h0s0-.05,0-.05h0s0-.05,0-.05h0s0-.05,0-.05h0s0-.05,0-.05h0s0-.05,0-.05h0s0-.05,0-.05h0s0-.05,0-.05h0s0-.05,0-.05h0s0-.05,0-.05h0s0-.05,0-.05h0s0-.05,0-.05h0s0-.05,0-.05h0s0-.05,0-.05h0s0-.05,0-.05h0s0-.05,0-.05h0s0-.05,0-.05h0s0-.05,0-.05h0s0-.05,0-.05h0s0-.05,0-.05h0s0-.05,0-.05h0s0-.05,0-.05h0s0-.05,0-.05h0s0-.05,0-.05h0s0-.05,0-.05h0s0-.05,0-.05h0s0-.05,0-.05h0s0-.05,0-.05h0s0-.05,0-.05h0s0-.05,0-.05h0s0-.05,0-.05h0s0-.05,0-.05h0s0-.05,0-.05h0s0-.05,0-.05h0s0-.05,0-.05h0s0-.05,0-.05h0s0-.05,0-.05h0s0-.05,0-.05h0s0-.05,0-.05h0s0-.05,0-.05h0s0-.05,0-.05h0s0-.05,0-.05h0s0-.05,0-.05h0s0-.05,0-.05h0s0-.05,0-.05h0s0-.05,0-.05h0s0-.05,0-.05h0s0-.05,0-.05h0s0-.05,0-.05h0s0-.05,0-.05h0s0-.05,0-.05h0s0-.05,0-.05l-.98-.16s0-.02,0-.03c0-.02,0-.03,0-.05s0-.03,0-.05,0-.03,0-.05,0-.03,0-.05,0-.03,0-.05,0-.03,0-.05,0-.03,0-.05,0-.03,0-.05,0-.03,0-.05,0-.03,0-.05,0-.03,0-.05,0-.03,0-.05,0-.03,0-.05,0-.03,0-.05,0-.03,0-.05,0-.03,0-.05,0-.03,0-.05,0-.03,0-.05,0-.03,0-.05,0-.03,0-.05,0-.03,0-.05,0-.03,0-.05,0-.03,0-.05,0-.03,0-.05,0-.03,0-.05,0-.03,0-.05,0-.03,0-.05,0-.03,0-.05,0-.03,0-.05,0-.03,0-.05,0-.03,0-.05,0-.03,0-.05,0-.03,0-.05,0-.03,0-.05,0-.03,0-.05,0-.03,0-.05,0-.03,0-.05,0-.03,0-.05,0-.03,0-.05,0-.03,0-.05,0-.03,0-.05,0-.03,0-.05,0-.03,0-.05,0-.03,0-.05,0-.03,0-.05,0-.03,0-.05,0-.03,0-.05,0-.03,0-.05,0-.03,0-.05,0-.03,0-.05,0-.03,0-.05,0-.03,0-.05,0-.03,0-.05,0-.03,0-.05,0-.03,0-.05,0-.03,0-.05,0-.03,0-.05,0-.03,0-.05,0-.03,0-.05,0-.03,0-.05,0-.03,0-.05c0-2.13-.03-4.23-.12-6.3l14.78,15.95v-.05s0,0,0,0v-.05s0,0,0,0v-.05s0,0,0,0v-.05s0,0,0,0v-.05s0,0,0,0v-.05s0,0,0,0v-.05s0,0,0,0v-.05s0,0,0,0v-.05s0,0,0,0v-.05s0,0,0,0v-.05s0,0,0,0v-.05s0,0,0,0v-.05s0,0,0,0v-.05s0,0,0,0v-.05s0,0,0,0v-.05s0,0,0,0v-.05s0,0,0,0v-.05s0,0,0,0v-.05s0,0,0,0v-.05s0,0,0,0v-.05s0,0,0,0v-.05s0,0,0,0v-.05s0,0,0,0v-.05s0,0,0,0v-.05s0,0,0,0v-.05s0,0,0,0v-.05s0,0,0,0v-.05s0,0,0,0v-.05s0,0,0,0v-.05s0,0,0,0v-.05s0,0,0,0v-.05s0,0,0,0v-.05s0,0,0,0v-.05s0,0,0,0v-.05s0,0,0,0v-.05s0,0,0,0v-.05s0,0,0,0v-.05s0,0,0,0v-.05s0,0,0,0v-.05s0,0,0,0v-.05s0,0,0,0v-.05s0,0,0,0v-.05s0,0,0,0v-.05s0,0,0,0v-.05s0,0,0,0v-.05s0,0,0,0v-.05s0,0,0,0v-.05s0,0,0,0v-.05s0,0,0,0v-.05s0,0,0,0v-.05s0,0,0,0v-.05s0,0,0,0v-.05s0,0,0,0v-.05s0,0,0,0v-.05s0,0,0,0v-.05s0,0,0,0v-.05s0,0,0,0v-.05s0,0,0,0v-.05s0,0,0,0v-.05s0,0,0,0v-.05s0,0,0,0v-.05s0,0,0,0v-.05s0,0,0,0v-.05s0,0,0,0v-.05s0,0,0,0v-.05s0,0,0,0v-.05s0,0,0,0v-.05s0,0,0,0v-.05s0,0,0,0v-.05s0,0,0,0v-.05s0,0,0,0v-.05s0,0,0,0v-.05s0,0,0,0v-.05s0,0,0,0v-.05s0,0,0,0v-.05s0,0,0,0v-.05s0,0,0,0v-.05s0,0,0,0v-.05s0,0,0,0v-.05s0,0,0,0v-.05s0,0,0,0v-.05s0,0,0,0v-.05s0,0,0,0v-.05s0,0,0,0v-.05s0,0,0,0v-.05s0,0,0,0v-.05s0,0,0,0v-.05s0,0,0,0v-.05s0,0,0,0v-.05s0,0,0,0v-.05s0,0,0,0v-.05s0,0,0,0v-.05s0,0,0,0v-.05s0,0,0,0v-.05s0,0,0,0v-.05s0,0,0,0v-.05s0,0,0,0v-.05s0,0,0,0v-.05s0,0,0,0v-.05s0,0,0,0v-.05s0,0,0,0v-.05s0,0,0,0v-.05s0,0,0,0v-.05s0,0,0,0v-.05s0,0,0,0v-.05s0,0,0,0v-.05s0,0,0,0v-.05s0,0,0,0v-.05s0,0,0,0v-.05s0,0,0,0v-.05s0,0,0,0v-.05s0,0,0,0v-.05s0,0,0,0v-.05s0,0,0,0v-.05s0,0,0,0v-.05s0,0,0,0v-.05s0,0,0,0v-.05s0,0,0,0v-.05s0,0,0,0v-.05s0,0,0,0v-.05s0,0,0,0v-.05s0,0,0,0v-.05s0,0,0,0v-.05s0,0,0,0v-.05s0,0,0,0v-.05s0,0,0,0v-.05s0,0,0,0v-.05s0,0,0,0v-.05s0,0,0,0v-.05s0,0,0,0v-.05s0,0,0,0v-.05s0,0,0,0v-.05s0,0,0,0v-.05s0,0,0,0v-.05s0,0,0,0v-.05s0,0,0,0v-.05s0,0,0,0v-.05s0,0,0,0v-.05s0,0,0,0v-.05s0,0,0,0v-.05s0,0,0,0v-.05s0,0,0,0v-.05s0,0,0,0v-.05s0,0,0,0v-.05s0,0,0,0v-.05s0,0,0,0v-.05s0,0,0,0v-.05s0,0,0,0v-.05s0,0,0,0v-.05s0,0,0,0v-.05s0,0,0,0v-.05s0,0,0,0v-.05s0,0,0,0v-.05s0,0,0,0v-.05s0,0,0,0v-.05s0,0,0,0v-.05s0,0,0,0v-.05s0,0,0,0v-.05s0,0,0,0v-.05s0,0,0,0v-.05s0,0,0,0v-.05s0,0,0,0v-.05s0,0,0,0v-.05s0,0,0,0v-.05s0,0,0,0v-.05s0,0,0,0v-.05s0,0,0,0v-.05s0,0,0,0v-.05s0,0,0,0v-.05s0,0,0,0v-.05s0,0,0,0v-.05s0,0,0,0v-.05s0,0,0,0v-.05s0,0,0,0v-.05s0,0,0,0v-.05s0,0,0,0v-.05s0,0,0,0v-.05s0,0,0,0v-.05s0,0,0,0v-.05s0,0,0,0v-.05s0,0,0,0v-.05s0,0,0,0v-.05s0,0,0,0v-.05s0,0,0,0v-.05s0,0,0,0v-.05s0,0,0,0v-.05s0,0,0,0v-.05s0,0,0,0v-.05s0,0,0,0v-.05s0,0,0,0v-.05s0,0,0,0v-.05s0,0,0,0v-.05s0,0,0,0v-.05s0,0,0,0v-.05s0,0,0,0v-.05s0,0,0,0v-.05s0,0,0,0v-.05s0,0,0,0v-.05s0,0,0,0v-.05s0,0,0,0v-.05s0,0,0,0v-.05s0,0,0,0v-.05s0,0,0,0v-.05s0,0,0,0v-.05s0,0,0,0v-.05Z"/>
  <path class="e" d="m432.68,273.64c-.48-9.69-3.38-18.72-8.43-26.39.14-.88.29-1.96.46-3.23l2.29-16-1.03-.17c.1-4.02.03-7.95-.2-11.76v-.2c-.21-2.92-.5-5.72-.84-8.36l15.74,16.98-15.55-219.32-93.33,26.93-10.51-.27c-4.32-2.32-8.91-3.99-13.69-4.98-2.47-.51-4.98-.84-7.58-1-2.16-1.47-4.34-2.74-6.61-3.85-21.9-10.69-43.24-1.56-47.3.38l-29.97,14.33c-4.11.68-8.1,1.98-11.85,3.86-4.18-.19-10.69-.46-18.61-.64-5.67-3.17-11.97-4.97-18.33-5.23l-26.35-1.3-1.98-.05c-7.76,0-15.31,2.17-21.82,6.21-9.56-3.77-20.88-5.61-35.27-5.74h-1c-15.42,0-31.8,2.08-38.04,2.96-10.73,1.41-20.7,7.12-27.33,15.67-6.5,8.38-9.52,18.8-8.49,29.25l1.05,11.86c.12,1.64.34,3.28.65,4.9-1.49,5.51-3.48,14.56-4.23,25.56v.14c-.97,15.68,1.52,30.01,1.61,30.56.11.62.23,1.24.36,1.86-1.47,4.31-2.21,8.83-2.21,13.48l.86,14.91c.23,4.56,1.18,8.98,2.85,13.17-.85,4.21-1.28,8.53-1.28,12.9,0,10.02,1.83,19.4,5.45,27.97-8.24,13.63-7.96,28.09-7.78,37.15v.26c.09,3.46.32,9.57.92,19.04v.11c1.13,21.63,18.98,38.57,40.69,38.57h19.5c5.37,0,10.66-1.06,15.57-3.09,6.17,2.34,12.74,3.53,19.58,3.53,5.09,0,10.06-.67,14.81-1.98,3.71,1.1,7.54,1.65,11.43,1.65h15.52c1.85,0,3.72-.13,5.56-.38,1.84.26,3.69.38,5.52.38h6.05c1.21,0,2.44-.06,3.66-.16,1.21.11,2.43.16,3.64.16h13.71c.95,0,1.82-.05,2.53-.1h.19c.74-.04,3.31.02,4.29.04,1.17.03,2.25.05,3.07.06,1.91,0,6.67,0,8.97,0,4.22.51,8.45.35,12.62-.47,2.01.31,4.05.46,6.07.46h6.05c1.21,0,2.44-.06,3.66-.16,1.21.11,2.43.16,3.64.16h13.71c3.57,0,7.1-.47,10.54-1.39,1.97.38,3.96.62,5.92.7l21.69,1.11c1.07.09,2.15.13,3.21.13,3.48,0,6.92-.45,10.25-1.32,3.05.72,6.16,1.09,9.29,1.09h15.52c3.36,0,6.71-.42,9.98-1.26,6.08,1.31,11.53,1.48,15.33,1.48h1.02c3.83-.06,7.31-.27,10.58-.67,2.05.32,4.12.48,6.18.48h14.38c10.73,0,20.86-4.17,28.59-11.8l.15-.15c.58-.58,1.14-1.18,1.68-1.79.25-.16.5-.33.75-.5,14.39-9.85,22.31-25.47,22.31-44l-.03-2-.02-.71Z"/>
  <path class="b" d="m423.69,272.62c-.46-9.32-3.64-17.81-9.1-24.53.32-1.19.57-2.41.74-3.64l.02-.12c.13-.84.29-1.91.45-3.17l.91-6.38-.22-.04c.46-5.43.74-12.27.3-19.5v-.16c-.94-13.45-3.75-23.92-5.19-28.53,1.75-1.71,3.34-3.58,4.75-5.57l13.34,14.4-12.67-178.64-82.94,23.93-14.56-.37c-4.04-2.46-8.38-4.18-12.95-5.12-2.83-.59-5.78-.88-8.94-.89-2.5-1.92-5.02-3.5-7.61-4.76-17.77-8.67-35.27-1.18-38.6.41l-23.16,11.07,1.18,3.95-3.82-.22-1.75-.05c-5.73,0-11.37,1.59-16.26,4.53-.14,0-.27-.01-.41-.02h-.08c-4.27-.22-12.68-.59-23.33-.8-4.76-3.13-10.32-4.95-15.94-5.18l-26.35-1.3-1.48-.04c-7.69,0-14.98,2.79-20.63,7.72-.66-.35-1.34-.68-2.02-.99-8.93-4.13-19.87-6.12-34.47-6.26h-.97c-14.77,0-30.61,2.01-36.73,2.88-8.14,1.07-15.7,5.4-20.73,11.88-4.93,6.35-7.21,14.25-6.43,22.23l1.06,11.95c.14,2.02.48,4.01,1,5.95-1.44,4.85-3.76,14.15-4.57,25.92v.14c-.9,14.52,1.4,27.76,1.49,28.26.24,1.4.57,2.78,1.01,4.13-1.78,4.02-2.71,8.39-2.71,12.89l.85,14.37c.22,4.46,1.37,8.76,3.37,12.68-1.19,4.49-1.79,9.15-1.79,13.92,0,10.57,2.39,20.4,6.97,28.9-9.76,12.23-9.49,26.48-9.3,36.04v.2c.09,3.37.32,9.34.9,18.68v.16c.83,16.34,14.3,29.13,30.7,29.13h19.5c5.46,0,10.7-1.42,15.31-4.09,6.06,2.98,12.79,4.53,19.83,4.53,5.23,0,10.24-.84,14.96-2.51,3.58,1.43,7.4,2.17,11.28,2.17h15.52c1.87,0,3.73-.17,5.56-.51,1.83.34,3.68.51,5.52.51h6.05c1.22,0,2.45-.07,3.66-.22,1.21.15,2.43.22,3.64.22h13.71c.63,0,1.24-.03,1.86-.08.15-.01.31-.02.46-.03,1.03-.04,3.28.01,4.92.05,1.11.03,2.13.05,2.89.05h0c2.1.01,7.67,0,9.55,0,3.95.55,7.91.32,11.77-.66,2.08.44,4.18.66,6.29.66h6.05c1.22,0,2.45-.07,3.66-.22,1.21.15,2.43.22,3.64.22h13.71c3.46,0,6.91-.6,10.16-1.74,2.21.61,4.49.96,6.8,1.06l21.85,1.12c.85.07,1.7.11,2.55.11,3.38,0,6.74-.57,9.92-1.67l.2-.07c3.04.99,6.23,1.5,9.42,1.5h15.52c3.29,0,6.59-.55,9.73-1.61,5.97,1.61,11.57,1.83,15.53,1.83h.93c4.02-.06,7.62-.31,10.94-.79,1.98.4,3.97.6,5.95.6h14.38c8.08,0,15.71-3.14,21.51-8.86l.15-.15c.75-.75,1.45-1.53,2.12-2.35.59-.37,1.18-.74,1.75-1.13,11.58-7.93,17.96-20.62,17.96-35.74l-.03-1.87v-.35Z"/>
  <path class="e" d="m192.75,311.22c2.53.01,10.12,0,10.12,0,.04,0,.08,0,.12,0,2.83.48,5.77.37,8.67-.38.73-.19,1.46-.41,2.2-.67,2.07.68,4.24,1.05,6.44,1.05h6.05c1.25,0,2.47-.11,3.66-.33,1.18.21,2.4.33,3.64.33h13.71c3.54,0,6.87-.9,9.77-2.48,2.37,1.06,4.95,1.7,7.65,1.8l22.08,1.13c.59.05,1.21.09,1.86.09,2.04,0,4.31-.31,6.73-1.14l2.43-.82.91-.61c2.85,1.49,6.07,2.34,9.47,2.34h15.52c3.32,0,6.48-.81,9.28-2.24,5.36,2.02,10.97,2.46,15.97,2.46.27,0,.54,0,.8,0,4.37-.06,8.15-.38,11.45-.97,1.77.5,3.64.78,5.57.78h14.38c5.43,0,10.57-2.11,14.45-5.95l.12-.12c.9-.9,1.71-1.88,2.41-2.91.99-.55,1.96-1.14,2.89-1.77,6.21-4.25,13.61-12.47,13.61-27.49l-.02-1.73c-.47-9.47-4.36-17.3-10.78-22.69,1.26-2.24,2.13-4.74,2.51-7.4h0c.56-3.5,2.14-14.85,1.38-27.13v-.15c-1-14.35-4.26-24.83-5.26-27.79l-.24-.71-.32-.74c-.46-1.07-.99-2.08-1.59-3.04,7.19-4.48,12.36-11.89,13.87-20.54l4.43,4.78-9.78-137.96-86.4,24.93c-1.26-1.33-2.72-2.67-4.37-3.93l.31-.52-1.06-.03c-3.23-2.31-7.16-4.28-11.87-5.26-3.09-.64-6.53-.83-10.36-.56-2.87-2.56-5.7-4.51-8.54-5.9-13.65-6.66-27.3-.8-29.9.44l-15.44,7.38,3.04,10.16c-1.82-.6-3.74-.96-5.71-1.04l-12.58-.73-1.17-.03c-5.17,0-9.95,1.85-13.69,4.93-1.12-.23-2.26-.38-3.41-.42h-.16c-4.28-.22-14.01-.66-26.2-.85-3.66-3.11-8.29-4.94-13.05-5.13l-26.35-1.3-.99-.02c-7.38,0-14,3.78-17.86,9.6-.5.26-.99.54-1.48.84-2.22-1.78-4.72-3.34-7.52-4.63-7.6-3.52-17.21-5.21-30.33-5.34-.3,0-.6,0-.9,0-14.11,0-29.35,1.94-35.34,2.78h-.09c-5.56.74-10.7,3.69-14.14,8.11-3.38,4.35-4.92,9.71-4.37,15.17l1.08,12.1c.15,2.34.69,4.59,1.55,6.66l-.15.45c-.93,2.7-4.02,12.58-4.96,26.14v.14c-.71,11.44.77,22.61,1.37,25.96.39,2.29,1.17,4.45,2.22,6.43-2.46,3.56-3.79,7.81-3.79,12.28l.83,13.84c.2,4.44,1.77,8.53,4.29,11.86-1.75,4.72-2.69,9.86-2.69,15.28,0,11.88,3.54,22.27,9.74,30.23-1.35,1.06-2.64,2.25-3.87,3.63-8.61,9.65-8.37,21.94-8.2,30.9v.12c.08,3.27.3,9.1.88,18.3v.23c.54,10.94,9.63,19.69,20.72,19.69h19.5c5.74,0,10.93-2.35,14.68-6.12,5.65,4.16,12.67,6.56,20.46,6.56,5.6,0,10.78-1.25,15.33-3.5,3.18,2,6.93,3.17,10.91,3.17h15.52c1.92,0,3.78-.27,5.56-.77,1.79.5,3.65.77,5.53.77h6.05c1.25,0,2.47-.11,3.66-.33,1.18.21,2.4.33,3.64.33h13.71c.65,0,1.28-.07,1.91-.1,2.07-.08,6.2.08,8.27.1Z"/>
  <g>
    <path class="f" d="m131.36,164.24l-.81,12.85c0,.81-.71,1.42-1.52,1.42-.1,0-1.32,0-3.44-.1.3,6.88.4,14.57-.1,22.16-1.72,23.17-4.76,36.83-4.86,36.93-.1.71-.81,1.21-1.52,1.21l-29.34-1.11c-.4,0-.81-.2-1.11-.5-.2-.3-.4-.71-.4-1.11,0-.1.2-2.33.4-5.87-3.44,1.32-7.59,2.23-12.55,2.12-15.68-.3-25.4-10.72-25.4-27.01s13.96-24.38,27.82-24.38c4.15,0,7.99.71,11.33,1.82-.1-1.62-.1-3.14-.1-4.65-19.43,0-38.95.51-39.16.51-.81,0-1.52-.61-1.52-1.42l-.81-12.85c0-.4.1-.81.4-1.11.2-.3.61-.51,1.01-.51.2,0,17.6-1.01,39.66-1.01-.1-2.23-.1-3.64-.1-3.74,0-.81.61-1.52,1.42-1.52l31.36-1.11c.71,0,1.42.5,1.52,1.32,0,.1.3,2.23.71,5.77,3.54.2,5.56.3,5.67.3.4,0,.81.2,1.01.51.3.3.4.71.4,1.11Zm-41.58,37.23c-.51-1.32-1.62-2.83-3.85-2.93-.81,0-1.62.3-2.23,1.01-1.11,1.01-1.72,2.73-1.62,4.45.1,2.43,1.62,4.96,4.25,4.96,1.52,0,2.63-1.32,3.34-2.63,0-1.62.1-3.24.1-4.86Z"/>
    <path class="d" d="m222.45,163.13l-.81,12.85c0,.71-.5,1.32-1.31,1.42-.2,0-22.66,3.14-22.16,17.6.41,15.58,19.63,17.71,20.44,17.81.41,0,.81.2,1.01.51.3.3.41.71.41,1.11l-2.43,20.94c-.1.61-.51,1.11-1.01,1.21-.3.1-7.08,2.43-27.42,2.33-12.44-.1-22.06-3.44-28.43-10.02-5.67-5.77-8.6-13.86-8.6-23.47v-.51c.1-14.57,9.92-23.78,15.99-28.23-14.37.2-26.41.71-26.51.71-.81,0-1.52-.61-1.62-1.42l-.61-12.85c0-.81.61-1.52,1.42-1.62.2,0,18.11-1.01,40.57-1.01s39.46,1.01,39.66,1.01c.4,0,.81.2,1.01.51.3.3.4.71.4,1.11Z"/>
    <path class="h" d="m267.76,238.5c-19.43,1.42-31.16-2.63-31.67-2.83-.71-.2-1.11-.81-1.01-1.52l1.72-21.55c.1-.81.81-1.42,1.62-1.42,0,0,9.11.1,13.46-1.11,5.56-1.52,8.09-4.15,7.99-8.3-.1-4.65-4.45-6.98-13.25-7.08-4.65,0-13.76,1.01-13.86,1.01-.41,0-.81-.1-1.11-.3-.3-.3-.51-.71-.51-1.11l-1.42-16.49c0-.71.41-1.32,1.01-1.62.5-.1,13.25-4.65,32.48-3.95,21.25.71,33.79,11.13,34.4,28.63.61,21.45-11.03,36.22-29.85,37.64Z"/>
    <path class="h" d="m325.37,190.44c.3.3.41.71.3,1.11,0,.1-1.21,11.03-1.72,21.15-.41,10.62.2,22.77.2,22.87,0,.4-.1.81-.41,1.11-.3.3-.71.51-1.11.51h-12.85c-.71,0-1.31-.61-1.52-1.32-.1-.51-1.92-11.53-1.11-23.07.81-13.25,4.05-22.46,4.25-22.77.2-.71.81-1.11,1.52-1.01l11.43.81c.41.1.71.3,1.01.61Zm38.25,1.82c1.32,2.73,4.35,9.71,4.35,19.33,0,.81-.1,1.62-.1,2.33-.61,13.15-7.89,24.18-8.2,24.59-.3.5-.91.71-1.42.71l-26.91-2.53c-.51,0-.91-.2-1.11-.61-.3-.4-.4-.81-.2-1.21,0-.2,2.83-11.13,2.83-20.54s-3.64-18.31-3.74-18.31c-.2-.61-.1-1.21.3-1.62,3.95-4.25,10.32-12.34,10.52-15.78,0-.71-.2-1.92-2.13-2.53-3.44-1.01-9.81-1.01-12.55-1.11h-.71c-4.45,0-12.04.3-12.04.3-.81,0-1.52-.61-1.62-1.42l-1.21-13.66c-.1-.81.51-1.52,1.32-1.62.2,0,19.53-2.93,36.42-2.83,21.25.2,31.67,4.96,31.67,14.67s-11.74,19.12-15.48,21.85Zm26.21,20.54c.71,11.53-1.11,22.56-1.21,23.07-.1.71-.81,1.32-1.52,1.32h-12.85c-.41,0-.81-.2-1.11-.51-.2-.3-.41-.71-.41-1.11,0-.1.61-12.24.2-22.87-.41-10.12-1.72-21.04-1.72-21.15,0-.4.1-.81.3-1.11.3-.3.71-.5,1.11-.61l11.33-.81c.71-.1,1.32.3,1.62,1.01.1.3,3.34,9.51,4.25,22.77Zm6.88-59.39c0,5.67-4.65,10.32-10.32,10.32s-10.42-4.65-10.42-10.32,4.65-10.42,10.42-10.42,10.32,4.65,10.32,10.42Zm-7.69-1.21c0-2.12-1.72-3.74-3.74-3.74-2.13,0-3.85,1.62-3.85,3.74s1.72,3.74,3.85,3.74,3.74-1.72,3.74-3.74Z"/>
    <path class="d" d="m84.61,250.58l-.63,8.55c0,.2-.1.39-.24.49-.2.15-.39.2-.59.15-.05,0-6.55-.83-9.34.39-1.91.78-2.59,2.93-2.88,5.67,5.67.05,10.07.29,10.12.29.39.05.68.34.68.73v7.67c0,.39-.29.73-.68.73-.05,0-4.6.29-10.46.29l-.34,12.02c0,.44-.34.73-.73.73h-19.5c-.39,0-.73-.29-.73-.68,0-.1-.68-10.27-.88-18.04-.15-7.58-.1-13.59,3.13-17.21,2.93-3.28,7.48-4.5,16.77-4.45,10.46,0,15.64,1.81,15.84,1.91.34.1.54.39.49.73Z"/>
    <path class="h" d="m118.84,273.27c-.18,7.48-4.02,15.48-14.19,15.48-8.7,0-14.52-6.3-14.52-15.67s2.06-14.3,2.17-14.52c.07-.18.3-.33.52-.33h13.53c.15,0,.29.07.41.18.11.11.15.26.15.41,0,.07-.37,4.2-.44,8.15-.07,2.76.04,5.79,1.14,6.89.37.37.81.52,1.4.52,2.1-.04,2.29-3.54,2.29-7.45,0-2.69-.18-8.07-.18-8.11,0-.15.04-.3.15-.41.11-.11.26-.18.41-.18h5.38c.26,0,.48.18.55.44,0,.07,1.44,7.08,1.25,14.6Z"/>
    <path class="h" d="m153.12,258.89v6.16c0,.29-.22.55-.55.55-.04,0-2.43.11-6.08.15.11,2.25.26,4.87.37,7.7.26,8.04.11,14.38.11,14.45-.04.29-.26.52-.55.52h-15.52c-.29,0-.52-.22-.55-.52,0-.07-.15-6.41.11-14.45.11-2.84.26-5.46.37-7.7-3.65-.04-6.05-.15-6.08-.15-.33,0-.55-.26-.55-.55v-6.16c0-.29.22-.52.55-.55.04,0,6.19-.22,13.9-.22s13.9.22,13.93.22c.33.04.55.26.55.55Z"/>
    <path class="h" d="m185.1,287.87c0,.29-.22.55-.55.55h-13.71c-.29,0-.52-.26-.55-.55,0,0,0-1.11-.15-2.73-.81.04-1.77.04-2.76.04-1.07,0-2.1,0-2.99-.04-.18,1.62-.29,2.76-.29,2.76,0,.29-.26.52-.55.52h-6.05c-.15,0-.29-.07-.41-.15-.11-.11-.15-.26-.15-.41,0-.07.18-8,1.51-15.81,1.66-9.73,3.43-13.27,3.5-13.42.07-.15.26-.26.44-.29.04,0,5.49-.55,10.91-.26,7.56.44,9.73,6.67,10.73,12.09.48,2.43.77,6.75.92,9.95.18,4.09.15,7.7.15,7.74Zm-17.73-15.7c-.52,1.47-1.36,4.05-2.03,7.08.66-.04,1.33-.04,2.03-.04s1.33,0,1.95.04c-.63-2.91-1.44-5.53-1.95-7.08Z"/>
    <path class="h" d="m217.24,278.32c0,.52-.04,1.11-.11,1.73-.81,6.3-8.22,8.55-8.52,8.63-.26.07-.48,0-.63-.18,0,0-1.36-1.99-2.76-3.94.11,1.92.18,3.24.18,3.28v.04c0,.15-.07.29-.15.37-.11.11-.26.18-.41.18h-13.68c-.3,0-.55-.22-.55-.52-.52-7.34-.48-8.81-.44-11.1l.04-2.69c0-7.82.74-14.6.74-14.63.04-.22.18-.41.37-.48.15-.04,3.02-.99,10.76-.99,6.08,0,14.12.77,14.12,7.63,0,2.95-.96,4.64-1.47,5.35.74.88,2.51,3.39,2.51,7.33Zm-12.35-4.9c0,1.51.04,3.69.15,5.9,1.14-.66,2.47-1.66,2.76-2.99.07-.37.07-.74.07-1.03,0-2.18-1.4-3.61-1.47-3.65-.11-.11-.15-.26-.15-.41s.04-.26.15-.37c0-.04,1.51-1.66,1.51-3.98,0-.15,0-.29-.04-.44-.15-2.1-1.88-2.73-2.76-2.91-.11,2.25-.15,5.01-.18,7.08l-.04,1.92v.88Z"/>
    <path class="h" d="m249.89,287.87c0,.29-.22.55-.55.55h-13.71c-.29,0-.52-.26-.55-.55,0,0,0-1.11-.15-2.73-.81.04-1.77.04-2.76.04-1.07,0-2.1,0-2.99-.04-.18,1.62-.29,2.76-.29,2.76,0,.29-.26.52-.55.52h-6.05c-.15,0-.29-.07-.41-.15-.11-.11-.15-.26-.15-.41,0-.07.18-8,1.51-15.81,1.66-9.73,3.43-13.27,3.5-13.42.07-.15.26-.26.44-.29.04,0,5.49-.55,10.91-.26,7.56.44,9.73,6.67,10.73,12.09.48,2.43.77,6.75.92,9.95.18,4.09.15,7.7.15,7.74Zm-17.73-15.7c-.52,1.47-1.36,4.05-2.03,7.08.66-.04,1.33-.04,2.03-.04s1.33,0,1.95.04c-.63-2.91-1.44-5.53-1.95-7.08Z"/>
    <path class="f" d="m298.99,276.96c0,7.77-7.72,11.73-8.02,11.93-.15.05-.24.1-.39.05l-22.97-1.17c-.29,0-.54-.15-.64-.44-.1-.25-.05-.54.1-.78.05-.05,4.4-4.89,4.74-11.49.2-2.79-1.03-5.03-2.3-7.43-1.42-2.69-2.93-5.47-2.74-9.24.39-7.33,9.48-10.51,9.87-10.61.1-.05.2-.05.29-.05l19.94,1.42c.29,0,.54.15.64.39.1.25.1.54-.1.78-.05.05-3.62,4.89-3.62,9.63,0,2.88,1.17,5.13,2.4,7.48,1.37,2.74,2.79,5.52,2.79,9.53Z"/>
    <path class="h" d="m332.47,259.2v6.16c0,.29-.22.55-.55.55-.04,0-2.43.11-6.08.15.11,2.25.26,4.87.37,7.7.26,8.04.11,14.38.11,14.45-.04.29-.26.52-.55.52h-15.52c-.29,0-.52-.22-.55-.52,0-.07-.15-6.41.11-14.45.11-2.84.26-5.46.37-7.7-3.65-.04-6.04-.15-6.08-.15-.33,0-.55-.26-.55-.55v-6.16c0-.29.22-.52.55-.55.04,0,6.19-.22,13.9-.22s13.9.22,13.93.22c.33.04.55.26.55.55Z"/>
    <path class="h" d="m363.17,286.92c0,.22-.11.44-.3.55-.11.04-2.8,1.36-11.32,1.48-8.44.07-11.35-1.48-13.34-4.02-1.92-2.43-1.99-8.07-1.92-11.24.29-8,1.07-14.26,1.07-14.3.04-.26.26-.48.52-.48.04-.04,6.16-.48,12.24-.48,5.53-.04,11.54.3,11.61.3.3,0,.52.26.52.55l-.22,5.49c-.04.33-.3.55-.59.55,0,0-1.84-.07-4.46.04-2.14.07-3.83.22-4.61.29-.04.59-.11,1.81-.18,3.24h.52c4.61,0,8.26.22,8.29.22.3,0,.52.26.52.55v4.35c0,.29-.22.52-.52.55-.04,0-3.69.22-8.29.22h-.37c.26,2.95,1,3.28,3.98,3.65,3.32.37,5.71-.07,5.75-.07.15-.04.33,0,.44.11s.22.26.22.41l.44,8.04Z"/>
    <path class="h" d="m396.7,270.52c0,5.09-1.4,8.59-4.9,10.98-1.95,1.33-4.31,2.21-5.46,2.4-.15.04-.37.04-.55,0-.22-.07-.33-.26-.33-.26l-2.29-4.76s.59,9.22.59,9.29v.04c0,.11-.04.26-.15.37-.11.11-.26.18-.41.18h-14.38c-.29,0-.55-.26-.55-.55,0-.07-.22-6.78-.04-14.04.22-7.85,1.07-14.6,1.11-14.67.04-.22.18-.41.41-.44.22-.07,5.46-1.25,12.68-1,9.1.33,13.9,4.28,14.27,11.72v.74Zm-13.45,2.95v1.11c1.81-.85,3.65-2.47,3.76-5.64v-.18c0-3.5-2.4-4.61-3.54-4.94-.07,2.21-.15,4.9-.18,6.93l-.04,1.84v.88Z"/>
    <path class="d" d="m65.39,100.11c.19.28.28.66.28,1.03,0,.09-1.22,10.2-1.59,19.56-.47,9.83.19,21.06.19,21.15,0,.37-.19.75-.47,1.03-.19.28-.56.47-.94.47h-11.89c-.75,0-1.31-.56-1.4-1.22-.09-.47-1.78-10.67-1.12-21.34.84-12.26,3.84-20.78,3.93-21.06.28-.65.84-1.03,1.5-.94l10.48.75c.37.09.75.28,1.03.56Zm35.38,1.68c1.22,2.53,3.93,8.99,3.93,17.88v2.15c-.65,12.17-7.3,22.37-7.68,22.74-.28.47-.75.65-1.22.65l-24.99-2.34c-.38,0-.75-.19-1.03-.56-.19-.37-.28-.75-.19-1.12.09-.19,2.71-10.3,2.71-19s-3.46-16.94-3.46-16.94c-.19-.56-.09-1.12.28-1.5,3.65-3.93,9.45-11.42,9.73-14.6,0-.65-.19-1.78-2.06-2.34-3.09-.94-8.99-.94-11.51-1.03h-.65c-4.12,0-11.14.28-11.23.28-.75,0-1.4-.56-1.4-1.31l-1.12-12.64c-.09-.75.47-1.4,1.22-1.5.09,0,18.06-2.71,33.6-2.62,19.75.19,29.3,4.59,29.3,13.57s-10.76,17.69-14.23,20.22Zm23.12,40.34c-.19.66-.75,1.22-1.4,1.22h-11.89c-.37,0-.75-.19-1.03-.47-.28-.28-.37-.65-.37-1.03,0-.09.56-11.33.19-21.15-.47-9.36-1.59-19.47-1.59-19.56-.09-.37,0-.75.28-1.03s.56-.47.94-.56l10.58-.75c.65-.09,1.22.28,1.4.94.19.28,3.18,8.8,3.93,21.06.75,10.67-1.03,20.87-1.03,21.34Z"/>
    <path class="f" d="m171.46,87.2h-1.97c-.47,6.55-.94,13.76-1.12,19.19-.47,14.69,0,36.22,0,36.41,0,.75-.65,1.4-1.4,1.4l-24.43.56c-.66.09-1.22-.47-1.4-1.12,0-.09-2.53-13.1-2.71-34.63,0-7.39.37-14.88.94-21.43-2.43.09-3.84.19-3.93.19-.75,0-1.4-.56-1.4-1.4l-.56-10.11c-.09-.75.56-1.4,1.31-1.4.09,0,2.25-.19,5.99-.28.47-3.56.84-5.71.84-5.8.09-.75.75-1.22,1.4-1.22l26.49,1.31c.37,0,.75.19,1.03.47.28.28.37.66.37,1.03,0,.09-.19,1.4-.37,3.56h.94c20.78,0,37.35.94,37.53.94.37,0,.66.19.94.47.28.28.37.66.37,1.03l-.65,10.11c0,.75-.66,1.31-1.4,1.31-.19,0-18.72-.56-36.78-.56Zm39.59,42.4v11.89c0,.65-.47,1.22-1.12,1.4-.47.09-11.23,2.34-18.16,1.97-9.92-.66-17.41-5.71-19.09-12.82-1.5-6.83,1.03-13.85,1.12-14.13.19-.56.75-.94,1.31-.94l17.5.47c.75,0,1.31.56,1.4,1.22.19,1.59,1.22,5.9,3.65,7.39,2.62,1.68,9.55,2.15,11.98,2.15.75,0,1.4.65,1.4,1.4Zm-20.87-18.72c0-.19.56-3.74-2.15-5.43-2.62-1.59-9.73-1.5-12.26-1.31-.75,0-1.4-.56-1.5-1.31l-1.12-9.73c-.09-.37,0-.75.28-1.03.19-.28.56-.47.94-.56.47,0,11.04-1.31,17.88-.84,12.45.75,18.81,4.4,18.81,10.86s-2.06,9.92-2.15,10.02c-.28.47-.65.65-1.12.65l-16.19.28c-.37,0-.84-.09-1.03-.47-.28-.28-.47-.75-.37-1.12Z"/>
    <path class="h" d="m239.68,106.01c0,14.04,1.31,33.98,1.31,34.26.09.75-.56,1.4-1.31,1.4l-12.82,1.03c-.75.09-1.4-.47-1.5-1.12,0-.19-2.43-16.75-2.34-35.57,0-18.72,2.34-34.35,2.34-34.44.09-.75.75-1.22,1.5-1.22l12.82.75c.37,0,.75.19.94.47.28.28.37.66.37,1.03,0,.19-1.4,20.5-1.31,33.41Zm60.65-4.59v.19l-1.87,11.23c-.09.37-.28.75-.66.94-.28.19-.65.28-1.03.28,0-.09-1.78-.37-4.49-.75-.09,12.35-1.59,31.73-24.71,31.73-18.81,0-25.74-12.54-25.93-24.24v-.84c0-15.44,8.61-24.99,23.4-25.65-.09-.94-.09-1.87-.09-2.53,0-.75,0-1.59-.09-2.62-10.2.09-19,.37-19.09.37-.75.09-1.4-.56-1.5-1.31l-.56-11.23c-.09-.84.47-1.5,1.22-1.5.09,0,8.24-.65,19.37-.84-.09-2.9-.19-4.87-.19-4.96v-.09c0-.28.09-.66.37-.94s.56-.37.94-.47l21.62-.75c.75,0,1.4.47,1.5,1.22,0,.09.28,2.53.84,6.27,5.24.28,8.52.56,8.61.56.75,0,1.31.65,1.22,1.5l-.56,11.23c-.09.75-.75,1.4-1.5,1.31-.09,0-2.43-.09-6.18-.19.28,2.62.47,5.24.75,7.86,4.96,1.4,7.68,2.81,7.86,3,.47.19.75.66.75,1.22Zm-40.34,15.35c0,.84.28,1.59.65,2.15.28.28.75.66,1.4.66,1.5,0,2.34-.47,2.71-3,.09-.75.19-2.53.19-4.77-4.03.66-4.59,1.97-4.87,4.03-.09.28-.09.65-.09.94Z"/>
    <path class="g" d="m303.45,60.22c-3.82-.79-9.7.32-13.63,1.29-2.51-3.16-6.48-7.64-9.99-9.35-5.65-2.76-12.5.52-12.5.52,0,0,2.32,7.75,7.97,10.51,2.79,1.36,6.97,1.79,10.5,1.88-.44.74-.77,1.64-.92,2.71-.44,3.3-1.11,5.61.61,6.4,3.4,1.56,3.09-1.61,4.15-4.7.32-.95.77-1.88,1.13-2.72,2.85,2.1,6.45,4.34,9.51,4.98,6.16,1.28,12.73-3.43,12.73-3.43,0,0-3.41-6.78-9.57-8.06Z"/>
    <polygon class="d" points="392.69 51.5 341.46 66.29 362.18 76.24 349.55 92.85 323.33 98.85 299.87 127.37 319.25 142.91 339.51 119.4 365.12 111.87 379.47 89.51 396.7 108.1 392.69 51.5"/>
  </g>
</svg>